<svg version='1.1' xmlns='http://www.w3.org/2000/svg' xmlns:xlink='http://www.w3.org/1999/xlink' x='0px' y='0px' width="614.20" height="398.20" viewBox='0 0 614.20 398.20' xml:space='preserve' > <style>g.day { animation: fall 2s ease 0s 1 normal forwards; transform: translate(0px, -398.2px); } @keyframes fall { to { transform: translate(0px, 0px); } } g[data-week="0"][data-day="0"] { animation-delay: 0s; } g[data-week="0"][data-day="1"] { animation-delay: 0.005s; } g[data-week="0"][data-day="2"] { animation-delay: 0.01s; } g[data-week="0"][data-day="3"] { animation-delay: 0.015s; } g[data-week="0"][data-day="4"] { animation-delay: 0.02s; } g[data-week="0"][data-day="5"] { animation-delay: 0.025s; } g[data-week="0"][data-day="6"] { animation-delay: 0.030000000000000002s; } g[data-week="1"][data-day="0"] { animation-delay: 0.035s; } g[data-week="1"][data-day="1"] { animation-delay: 0.04s; } g[data-week="1"][data-day="2"] { animation-delay: 0.045s; } g[data-week="1"][data-day="3"] { animation-delay: 0.049999999999999996s; } g[data-week="1"][data-day="4"] { animation-delay: 0.05499999999999999s; } g[data-week="1"][data-day="5"] { animation-delay: 0.05999999999999999s; } g[data-week="1"][data-day="6"] { animation-delay: 0.06499999999999999s; } g[data-week="2"][data-day="0"] { animation-delay: 0.06999999999999999s; } g[data-week="2"][data-day="1"] { animation-delay: 0.075s; } g[data-week="2"][data-day="2"] { animation-delay: 0.08s; } g[data-week="2"][data-day="3"] { animation-delay: 0.085s; } g[data-week="2"][data-day="4"] { animation-delay: 0.09000000000000001s; } g[data-week="2"][data-day="5"] { animation-delay: 0.09500000000000001s; } g[data-week="2"][data-day="6"] { animation-delay: 0.10000000000000002s; } g[data-week="3"][data-day="0"] { animation-delay: 0.10500000000000002s; } g[data-week="3"][data-day="1"] { animation-delay: 0.11000000000000003s; } g[data-week="3"][data-day="2"] { animation-delay: 0.11500000000000003s; } g[data-week="3"][data-day="3"] { animation-delay: 0.12000000000000004s; } g[data-week="3"][data-day="4"] { animation-delay: 0.12500000000000003s; } g[data-week="3"][data-day="5"] { animation-delay: 0.13000000000000003s; } g[data-week="3"][data-day="6"] { animation-delay: 0.13500000000000004s; } g[data-week="4"][data-day="0"] { animation-delay: 0.14000000000000004s; } g[data-week="4"][data-day="1"] { animation-delay: 0.14500000000000005s; } g[data-week="4"][data-day="2"] { animation-delay: 0.15000000000000005s; } g[data-week="4"][data-day="3"] { animation-delay: 0.15500000000000005s; } g[data-week="4"][data-day="4"] { animation-delay: 0.16000000000000006s; } g[data-week="4"][data-day="5"] { animation-delay: 0.16500000000000006s; } g[data-week="4"][data-day="6"] { animation-delay: 0.17000000000000007s; } g[data-week="5"][data-day="0"] { animation-delay: 0.17500000000000007s; } g[data-week="5"][data-day="1"] { animation-delay: 0.18000000000000008s; } g[data-week="5"][data-day="2"] { animation-delay: 0.18500000000000008s; } g[data-week="5"][data-day="3"] { animation-delay: 0.19000000000000009s; } g[data-week="5"][data-day="4"] { animation-delay: 0.1950000000000001s; } g[data-week="5"][data-day="5"] { animation-delay: 0.2000000000000001s; } g[data-week="5"][data-day="6"] { animation-delay: 0.2050000000000001s; } g[data-week="6"][data-day="0"] { animation-delay: 0.2100000000000001s; } g[data-week="6"][data-day="1"] { animation-delay: 0.2150000000000001s; } g[data-week="6"][data-day="2"] { animation-delay: 0.2200000000000001s; } g[data-week="6"][data-day="3"] { animation-delay: 0.22500000000000012s; } g[data-week="6"][data-day="4"] { animation-delay: 0.23000000000000012s; } g[data-week="6"][data-day="5"] { animation-delay: 0.23500000000000013s; } g[data-week="6"][data-day="6"] { animation-delay: 0.24000000000000013s; } g[data-week="7"][data-day="0"] { animation-delay: 0.24500000000000013s; } g[data-week="7"][data-day="1"] { animation-delay: 0.2500000000000001s; } g[data-week="7"][data-day="2"] { animation-delay: 0.2550000000000001s; } g[data-week="7"][data-day="3"] { animation-delay: 0.2600000000000001s; } g[data-week="7"][data-day="4"] { animation-delay: 0.2650000000000001s; } g[data-week="7"][data-day="5"] { animation-delay: 0.27000000000000013s; } g[data-week="7"][data-day="6"] { animation-delay: 0.27500000000000013s; } g[data-week="8"][data-day="0"] { animation-delay: 0.28000000000000014s; } g[data-week="8"][data-day="1"] { animation-delay: 0.28500000000000014s; } g[data-week="8"][data-day="2"] { animation-delay: 0.29000000000000015s; } g[data-week="8"][data-day="3"] { animation-delay: 0.29500000000000015s; } g[data-week="8"][data-day="4"] { animation-delay: 0.30000000000000016s; } g[data-week="8"][data-day="5"] { animation-delay: 0.30500000000000016s; } g[data-week="8"][data-day="6"] { animation-delay: 0.31000000000000016s; } g[data-week="9"][data-day="0"] { animation-delay: 0.31500000000000017s; } g[data-week="9"][data-day="1"] { animation-delay: 0.3200000000000002s; } g[data-week="9"][data-day="2"] { animation-delay: 0.3250000000000002s; } g[data-week="9"][data-day="3"] { animation-delay: 0.3300000000000002s; } g[data-week="9"][data-day="4"] { animation-delay: 0.3350000000000002s; } g[data-week="9"][data-day="5"] { animation-delay: 0.3400000000000002s; } g[data-week="9"][data-day="6"] { animation-delay: 0.3450000000000002s; } g[data-week="10"][data-day="0"] { animation-delay: 0.3500000000000002s; } g[data-week="10"][data-day="1"] { animation-delay: 0.3550000000000002s; } g[data-week="10"][data-day="2"] { animation-delay: 0.3600000000000002s; } g[data-week="10"][data-day="3"] { animation-delay: 0.3650000000000002s; } g[data-week="10"][data-day="4"] { animation-delay: 0.3700000000000002s; } g[data-week="10"][data-day="5"] { animation-delay: 0.3750000000000002s; } g[data-week="10"][data-day="6"] { animation-delay: 0.3800000000000002s; } g[data-week="11"][data-day="0"] { animation-delay: 0.38500000000000023s; } g[data-week="11"][data-day="1"] { animation-delay: 0.39000000000000024s; } g[data-week="11"][data-day="2"] { animation-delay: 0.39500000000000024s; } g[data-week="11"][data-day="3"] { animation-delay: 0.40000000000000024s; } g[data-week="11"][data-day="4"] { animation-delay: 0.40500000000000025s; } g[data-week="11"][data-day="5"] { animation-delay: 0.41000000000000025s; } g[data-week="11"][data-day="6"] { animation-delay: 0.41500000000000026s; } g[data-week="12"][data-day="0"] { animation-delay: 0.42000000000000026s; } g[data-week="12"][data-day="1"] { animation-delay: 0.42500000000000027s; } g[data-week="12"][data-day="2"] { animation-delay: 0.43000000000000027s; } g[data-week="12"][data-day="3"] { animation-delay: 0.4350000000000003s; } g[data-week="12"][data-day="4"] { animation-delay: 0.4400000000000003s; } g[data-week="12"][data-day="5"] { animation-delay: 0.4450000000000003s; } g[data-week="12"][data-day="6"] { animation-delay: 0.4500000000000003s; } g[data-week="13"][data-day="0"] { animation-delay: 0.4550000000000003s; } g[data-week="13"][data-day="1"] { animation-delay: 0.4600000000000003s; } g[data-week="13"][data-day="2"] { animation-delay: 0.4650000000000003s; } g[data-week="13"][data-day="3"] { animation-delay: 0.4700000000000003s; } g[data-week="13"][data-day="4"] { animation-delay: 0.4750000000000003s; } g[data-week="13"][data-day="5"] { animation-delay: 0.4800000000000003s; } g[data-week="13"][data-day="6"] { animation-delay: 0.4850000000000003s; } g[data-week="14"][data-day="0"] { animation-delay: 0.4900000000000003s; } g[data-week="14"][data-day="1"] { animation-delay: 0.49500000000000033s; } g[data-week="14"][data-day="2"] { animation-delay: 0.5000000000000003s; } g[data-week="14"][data-day="3"] { animation-delay: 0.5050000000000003s; } g[data-week="14"][data-day="4"] { animation-delay: 0.5100000000000003s; } g[data-week="14"][data-day="5"] { animation-delay: 0.5150000000000003s; } g[data-week="14"][data-day="6"] { animation-delay: 0.5200000000000004s; } g[data-week="15"][data-day="0"] { animation-delay: 0.5250000000000004s; } g[data-week="15"][data-day="1"] { animation-delay: 0.5300000000000004s; } g[data-week="15"][data-day="2"] { animation-delay: 0.5350000000000004s; } g[data-week="15"][data-day="3"] { animation-delay: 0.5400000000000004s; } g[data-week="15"][data-day="4"] { animation-delay: 0.5450000000000004s; } g[data-week="15"][data-day="5"] { animation-delay: 0.5500000000000004s; } g[data-week="15"][data-day="6"] { animation-delay: 0.5550000000000004s; } g[data-week="16"][data-day="0"] { animation-delay: 0.5600000000000004s; } g[data-week="16"][data-day="1"] { animation-delay: 0.5650000000000004s; } g[data-week="16"][data-day="2"] { animation-delay: 0.5700000000000004s; } g[data-week="16"][data-day="3"] { animation-delay: 0.5750000000000004s; } g[data-week="16"][data-day="4"] { animation-delay: 0.5800000000000004s; } g[data-week="16"][data-day="5"] { animation-delay: 0.5850000000000004s; } g[data-week="16"][data-day="6"] { animation-delay: 0.5900000000000004s; } g[data-week="17"][data-day="0"] { animation-delay: 0.5950000000000004s; } g[data-week="17"][data-day="1"] { animation-delay: 0.6000000000000004s; } g[data-week="17"][data-day="2"] { animation-delay: 0.6050000000000004s; } g[data-week="17"][data-day="3"] { animation-delay: 0.6100000000000004s; } g[data-week="17"][data-day="4"] { animation-delay: 0.6150000000000004s; } g[data-week="17"][data-day="5"] { animation-delay: 0.6200000000000004s; } g[data-week="17"][data-day="6"] { animation-delay: 0.6250000000000004s; } g[data-week="18"][data-day="0"] { animation-delay: 0.6300000000000004s; } g[data-week="18"][data-day="1"] { animation-delay: 0.6350000000000005s; } g[data-week="18"][data-day="2"] { animation-delay: 0.6400000000000005s; } g[data-week="18"][data-day="3"] { animation-delay: 0.6450000000000005s; } g[data-week="18"][data-day="4"] { animation-delay: 0.6500000000000005s; } g[data-week="18"][data-day="5"] { animation-delay: 0.6550000000000005s; } g[data-week="18"][data-day="6"] { animation-delay: 0.6600000000000005s; } g[data-week="19"][data-day="0"] { animation-delay: 0.6650000000000005s; } g[data-week="19"][data-day="1"] { animation-delay: 0.6700000000000005s; } g[data-week="19"][data-day="2"] { animation-delay: 0.6750000000000005s; } g[data-week="19"][data-day="3"] { animation-delay: 0.6800000000000005s; } g[data-week="19"][data-day="4"] { animation-delay: 0.6850000000000005s; } g[data-week="19"][data-day="5"] { animation-delay: 0.6900000000000005s; } g[data-week="19"][data-day="6"] { animation-delay: 0.6950000000000005s; } g[data-week="20"][data-day="0"] { animation-delay: 0.7000000000000005s; } g[data-week="20"][data-day="1"] { animation-delay: 0.7050000000000005s; } g[data-week="20"][data-day="2"] { animation-delay: 0.7100000000000005s; } g[data-week="20"][data-day="3"] { animation-delay: 0.7150000000000005s; } g[data-week="20"][data-day="4"] { animation-delay: 0.7200000000000005s; } g[data-week="20"][data-day="5"] { animation-delay: 0.7250000000000005s; } g[data-week="20"][data-day="6"] { animation-delay: 0.7300000000000005s; } g[data-week="21"][data-day="0"] { animation-delay: 0.7350000000000005s; } g[data-week="21"][data-day="1"] { animation-delay: 0.7400000000000005s; } g[data-week="21"][data-day="2"] { animation-delay: 0.7450000000000006s; } g[data-week="21"][data-day="3"] { animation-delay: 0.7500000000000006s; } g[data-week="21"][data-day="4"] { animation-delay: 0.7550000000000006s; } g[data-week="21"][data-day="5"] { animation-delay: 0.7600000000000006s; } g[data-week="21"][data-day="6"] { animation-delay: 0.7650000000000006s; } g[data-week="22"][data-day="0"] { animation-delay: 0.7700000000000006s; } g[data-week="22"][data-day="1"] { animation-delay: 0.7750000000000006s; } g[data-week="22"][data-day="2"] { animation-delay: 0.7800000000000006s; } g[data-week="22"][data-day="3"] { animation-delay: 0.7850000000000006s; } g[data-week="22"][data-day="4"] { animation-delay: 0.7900000000000006s; } g[data-week="22"][data-day="5"] { animation-delay: 0.7950000000000006s; } g[data-week="22"][data-day="6"] { animation-delay: 0.8000000000000006s; } g[data-week="23"][data-day="0"] { animation-delay: 0.8050000000000006s; } g[data-week="23"][data-day="1"] { animation-delay: 0.8100000000000006s; } g[data-week="23"][data-day="2"] { animation-delay: 0.8150000000000006s; } g[data-week="23"][data-day="3"] { animation-delay: 0.8200000000000006s; } g[data-week="23"][data-day="4"] { animation-delay: 0.8250000000000006s; } g[data-week="23"][data-day="5"] { animation-delay: 0.8300000000000006s; } g[data-week="23"][data-day="6"] { animation-delay: 0.8350000000000006s; } g[data-week="24"][data-day="0"] { animation-delay: 0.8400000000000006s; } g[data-week="24"][data-day="1"] { animation-delay: 0.8450000000000006s; } g[data-week="24"][data-day="2"] { animation-delay: 0.8500000000000006s; } g[data-week="24"][data-day="3"] { animation-delay: 0.8550000000000006s; } g[data-week="24"][data-day="4"] { animation-delay: 0.8600000000000007s; } g[data-week="24"][data-day="5"] { animation-delay: 0.8650000000000007s; } g[data-week="24"][data-day="6"] { animation-delay: 0.8700000000000007s; } g[data-week="25"][data-day="0"] { animation-delay: 0.8750000000000007s; } g[data-week="25"][data-day="1"] { animation-delay: 0.8800000000000007s; } g[data-week="25"][data-day="2"] { animation-delay: 0.8850000000000007s; } g[data-week="25"][data-day="3"] { animation-delay: 0.8900000000000007s; } g[data-week="25"][data-day="4"] { animation-delay: 0.8950000000000007s; } g[data-week="25"][data-day="5"] { animation-delay: 0.9000000000000007s; } g[data-week="25"][data-day="6"] { animation-delay: 0.9050000000000007s; } g[data-week="26"][data-day="0"] { animation-delay: 0.9100000000000007s; } g[data-week="26"][data-day="1"] { animation-delay: 0.9150000000000007s; } g[data-week="26"][data-day="2"] { animation-delay: 0.9200000000000007s; } g[data-week="26"][data-day="3"] { animation-delay: 0.9250000000000007s; } g[data-week="26"][data-day="4"] { animation-delay: 0.9300000000000007s; } g[data-week="26"][data-day="5"] { animation-delay: 0.9350000000000007s; } g[data-week="26"][data-day="6"] { animation-delay: 0.9400000000000007s; } g[data-week="27"][data-day="0"] { animation-delay: 0.9450000000000007s; } g[data-week="27"][data-day="1"] { animation-delay: 0.9500000000000007s; } g[data-week="27"][data-day="2"] { animation-delay: 0.9550000000000007s; } g[data-week="27"][data-day="3"] { animation-delay: 0.9600000000000007s; } g[data-week="27"][data-day="4"] { animation-delay: 0.9650000000000007s; } g[data-week="27"][data-day="5"] { animation-delay: 0.9700000000000008s; } g[data-week="27"][data-day="6"] { animation-delay: 0.9750000000000008s; } g[data-week="28"][data-day="0"] { animation-delay: 0.9800000000000008s; } g[data-week="28"][data-day="1"] { animation-delay: 0.9850000000000008s; } g[data-week="28"][data-day="2"] { animation-delay: 0.9900000000000008s; } g[data-week="28"][data-day="3"] { animation-delay: 0.9950000000000008s; } g[data-week="28"][data-day="4"] { animation-delay: 1.0000000000000007s; } g[data-week="28"][data-day="5"] { animation-delay: 1.0050000000000006s; } g[data-week="28"][data-day="6"] { animation-delay: 1.0100000000000005s; } g[data-week="29"][data-day="0"] { animation-delay: 1.0150000000000003s; } g[data-week="29"][data-day="1"] { animation-delay: 1.0200000000000002s; } g[data-week="29"][data-day="2"] { animation-delay: 1.0250000000000001s; } g[data-week="29"][data-day="3"] { animation-delay: 1.03s; } g[data-week="29"][data-day="4"] { animation-delay: 1.035s; } g[data-week="29"][data-day="5"] { animation-delay: 1.0399999999999998s; } g[data-week="29"][data-day="6"] { animation-delay: 1.0449999999999997s; } </style> <defs> </defs> <g transform="translate(116.20000000000002,80)"> <g data-week="0" data-day="0" class="day"><path d="M0.00,0.00 -16.00,-8.00 -16.00,8.00 0.00,16.00 z" fill="#94ab68"></path><path d="M0.00,0.00 16.00,-8.00 16.00,8.00 0.00,16.00 z" fill="#a8c176"></path><path d="M0.00,0.00 -16.00,-8.00 0.00,-16.00 16.00,-8.00 z" fill="#c6e48b"></path></g> <g data-week="0" data-day="1" class="day"><path d="M-16.60,8.60 -32.60,0.60 -32.60,16.60 -16.60,24.60 z" fill="#94ab68"></path><path d="M-16.60,8.60 -0.60,0.60 -0.60,16.60 -16.60,24.60 z" fill="#a8c176"></path><path d="M-16.60,8.60 -32.60,0.60 -16.60,-7.40 -0.60,0.60 z" fill="#c6e48b"></path></g> <g data-week="0" data-day="2" class="day"><path d="M-33.20,17.20 -49.20,9.20 -49.20,25.20 -33.20,33.20 z" fill="#94ab68"></path><path d="M-33.20,17.20 -17.20,9.20 -17.20,25.20 -33.20,33.20 z" fill="#a8c176"></path><path d="M-33.20,17.20 -49.20,9.20 -33.20,1.20 -17.20,9.20 z" fill="#c6e48b"></path></g> <g data-week="0" data-day="3" class="day"><path d="M-49.80,25.80 -65.80,17.80 -65.80,33.80 -49.80,41.80 z" fill="#94ab68"></path><path d="M-49.80,25.80 -33.80,17.80 -33.80,33.80 -49.80,41.80 z" fill="#a8c176"></path><path d="M-49.80,25.80 -65.80,17.80 -49.80,9.80 -33.80,17.80 z" fill="#c6e48b"></path></g> <g data-week="0" data-day="4" class="day"><path d="M-66.40,34.40 -82.40,26.40 -82.40,42.40 -66.40,50.40 z" fill="#94ab68"></path><path d="M-66.40,34.40 -50.40,26.40 -50.40,42.40 -66.40,50.40 z" fill="#a8c176"></path><path d="M-66.40,34.40 -82.40,26.40 -66.40,18.40 -50.40,26.40 z" fill="#c6e48b"></path></g> <g data-week="0" data-day="5" class="day"><path d="M-83.00,43.00 -99.00,35.00 -99.00,51.00 -83.00,59.00 z" fill="#94ab68"></path><path d="M-83.00,43.00 -67.00,35.00 -67.00,51.00 -83.00,59.00 z" fill="#a8c176"></path><path d="M-83.00,43.00 -99.00,35.00 -83.00,27.00 -67.00,35.00 z" fill="#c6e48b"></path></g> <g data-week="0" data-day="6" class="day"><path d="M-99.60,64.40 -115.60,56.40 -115.60,59.60 -99.60,67.60 z" fill="#b0b1b4"></path><path d="M-99.60,64.40 -83.60,56.40 -83.60,59.60 -99.60,67.60 z" fill="#c7c9cc"></path><path d="M-99.60,64.40 -115.60,56.40 -99.60,48.40 -83.60,56.40 z" fill="#ebedf0"></path></g> <g data-week="1" data-day="0" class="day"><path d="M16.60,21.40 0.60,13.40 0.60,16.60 16.60,24.60 z" fill="#b0b1b4"></path><path d="M16.60,21.40 32.60,13.40 32.60,16.60 16.60,24.60 z" fill="#c7c9cc"></path><path d="M16.60,21.40 0.60,13.40 16.60,5.40 32.60,13.40 z" fill="#ebedf0"></path></g> <g data-week="1" data-day="1" class="day"><path d="M0.00,17.20 -16.00,9.20 -16.00,25.20 0.00,33.20 z" fill="#94ab68"></path><path d="M0.00,17.20 16.00,9.20 16.00,25.20 0.00,33.20 z" fill="#a8c176"></path><path d="M0.00,17.20 -16.00,9.20 0.00,1.20 16.00,9.20 z" fill="#c6e48b"></path></g> <g data-week="1" data-day="2" class="day"><path d="M-16.60,25.80 -32.60,17.80 -32.60,33.80 -16.60,41.80 z" fill="#94ab68"></path><path d="M-16.60,25.80 -0.60,17.80 -0.60,33.80 -16.60,41.80 z" fill="#a8c176"></path><path d="M-16.60,25.80 -32.60,17.80 -16.60,9.80 -0.60,17.80 z" fill="#c6e48b"></path></g> <g data-week="1" data-day="3" class="day"><path d="M-33.20,34.40 -49.20,26.40 -49.20,42.40 -33.20,50.40 z" fill="#94ab68"></path><path d="M-33.20,34.40 -17.20,26.40 -17.20,42.40 -33.20,50.40 z" fill="#a8c176"></path><path d="M-33.20,34.40 -49.20,26.40 -33.20,18.40 -17.20,26.40 z" fill="#c6e48b"></path></g> <g data-week="1" data-day="4" class="day"><path d="M-49.80,43.00 -65.80,35.00 -65.80,51.00 -49.80,59.00 z" fill="#5c9653"></path><path d="M-49.80,43.00 -33.80,35.00 -33.80,51.00 -49.80,59.00 z" fill="#68aa5e"></path><path d="M-49.80,43.00 -65.80,35.00 -49.80,27.00 -33.80,35.00 z" fill="#7bc96f"></path></g> <g data-week="1" data-day="5" class="day"><path d="M-66.40,51.60 -82.40,43.60 -82.40,59.60 -66.40,67.60 z" fill="#94ab68"></path><path d="M-66.40,51.60 -50.40,43.60 -50.40,59.60 -66.40,67.60 z" fill="#a8c176"></path><path d="M-66.40,51.60 -82.40,43.60 -66.40,35.60 -50.40,43.60 z" fill="#c6e48b"></path></g> <g data-week="1" data-day="6" class="day"><path d="M-83.00,60.20 -99.00,52.20 -99.00,68.20 -83.00,76.20 z" fill="#94ab68"></path><path d="M-83.00,60.20 -67.00,52.20 -67.00,68.20 -83.00,76.20 z" fill="#a8c176"></path><path d="M-83.00,60.20 -99.00,52.20 -83.00,44.20 -67.00,52.20 z" fill="#c6e48b"></path></g> <g data-week="2" data-day="0" class="day"><path d="M33.20,17.20 17.20,9.20 17.20,25.20 33.20,33.20 z" fill="#94ab68"></path><path d="M33.20,17.20 49.20,9.20 49.20,25.20 33.20,33.20 z" fill="#a8c176"></path><path d="M33.20,17.20 17.20,9.20 33.20,1.20 49.20,9.20 z" fill="#c6e48b"></path></g> <g data-week="2" data-day="1" class="day"><path d="M16.60,25.80 0.60,17.80 0.60,33.80 16.60,41.80 z" fill="#12481d"></path><path d="M16.60,25.80 32.60,17.80 32.60,33.80 16.60,41.80 z" fill="#155121"></path><path d="M16.60,25.80 0.60,17.80 16.60,9.80 32.60,17.80 z" fill="#196027"></path></g> <g data-week="2" data-day="2" class="day"><path d="M0.00,34.40 -16.00,26.40 -16.00,42.40 0.00,50.40 z" fill="#5c9653"></path><path d="M0.00,34.40 16.00,26.40 16.00,42.40 0.00,50.40 z" fill="#68aa5e"></path><path d="M0.00,34.40 -16.00,26.40 0.00,18.40 16.00,26.40 z" fill="#7bc96f"></path></g> <g data-week="2" data-day="3" class="day"><path d="M-16.60,43.00 -32.60,35.00 -32.60,51.00 -16.60,59.00 z" fill="#5c9653"></path><path d="M-16.60,43.00 -0.60,35.00 -0.60,51.00 -16.60,59.00 z" fill="#68aa5e"></path><path d="M-16.60,43.00 -32.60,35.00 -16.60,27.00 -0.60,35.00 z" fill="#7bc96f"></path></g> <g data-week="2" data-day="4" class="day"><path d="M-33.20,51.60 -49.20,43.60 -49.20,59.60 -33.20,67.60 z" fill="#94ab68"></path><path d="M-33.20,51.60 -17.20,43.60 -17.20,59.60 -33.20,67.60 z" fill="#a8c176"></path><path d="M-33.20,51.60 -49.20,43.60 -33.20,35.60 -17.20,43.60 z" fill="#c6e48b"></path></g> <g data-week="2" data-day="5" class="day"><path d="M-49.80,60.20 -65.80,52.20 -65.80,68.20 -49.80,76.20 z" fill="#5c9653"></path><path d="M-49.80,60.20 -33.80,52.20 -33.80,68.20 -49.80,76.20 z" fill="#68aa5e"></path><path d="M-49.80,60.20 -65.80,52.20 -49.80,44.20 -33.80,52.20 z" fill="#7bc96f"></path></g> <g data-week="2" data-day="6" class="day"><path d="M-66.40,68.80 -82.40,60.80 -82.40,76.80 -66.40,84.80 z" fill="#94ab68"></path><path d="M-66.40,68.80 -50.40,60.80 -50.40,76.80 -66.40,84.80 z" fill="#a8c176"></path><path d="M-66.40,68.80 -82.40,60.80 -66.40,52.80 -50.40,60.80 z" fill="#c6e48b"></path></g> <g data-week="3" data-day="0" class="day"><path d="M49.80,25.80 33.80,17.80 33.80,33.80 49.80,41.80 z" fill="#5c9653"></path><path d="M49.80,25.80 65.80,17.80 65.80,33.80 49.80,41.80 z" fill="#68aa5e"></path><path d="M49.80,25.80 33.80,17.80 49.80,9.80 65.80,17.80 z" fill="#7bc96f"></path></g> <g data-week="3" data-day="1" class="day"><path d="M33.20,34.40 17.20,26.40 17.20,42.40 33.20,50.40 z" fill="#94ab68"></path><path d="M33.20,34.40 49.20,26.40 49.20,42.40 33.20,50.40 z" fill="#a8c176"></path><path d="M33.20,34.40 17.20,26.40 33.20,18.40 49.20,26.40 z" fill="#c6e48b"></path></g> <g data-week="3" data-day="2" class="day"><path d="M16.60,43.00 0.60,35.00 0.60,51.00 16.60,59.00 z" fill="#5c9653"></path><path d="M16.60,43.00 32.60,35.00 32.60,51.00 16.60,59.00 z" fill="#68aa5e"></path><path d="M16.60,43.00 0.60,35.00 16.60,27.00 32.60,35.00 z" fill="#7bc96f"></path></g> <g data-week="3" data-day="3" class="day"><path d="M0.00,51.60 -16.00,43.60 -16.00,59.60 0.00,67.60 z" fill="#94ab68"></path><path d="M0.00,51.60 16.00,43.60 16.00,59.60 0.00,67.60 z" fill="#a8c176"></path><path d="M0.00,51.60 -16.00,43.60 0.00,35.60 16.00,43.60 z" fill="#c6e48b"></path></g> <g data-week="3" data-day="4" class="day"><path d="M-16.60,60.20 -32.60,52.20 -32.60,68.20 -16.60,76.20 z" fill="#94ab68"></path><path d="M-16.60,60.20 -0.60,52.20 -0.60,68.20 -16.60,76.20 z" fill="#a8c176"></path><path d="M-16.60,60.20 -32.60,52.20 -16.60,44.20 -0.60,52.20 z" fill="#c6e48b"></path></g> <g data-week="3" data-day="5" class="day"><path d="M-33.20,68.80 -49.20,60.80 -49.20,76.80 -33.20,84.80 z" fill="#5c9653"></path><path d="M-33.20,68.80 -17.20,60.80 -17.20,76.80 -33.20,84.80 z" fill="#68aa5e"></path><path d="M-33.20,68.80 -49.20,60.80 -33.20,52.80 -17.20,60.80 z" fill="#7bc96f"></path></g> <g data-week="3" data-day="6" class="day"><path d="M-49.80,77.40 -65.80,69.40 -65.80,85.40 -49.80,93.40 z" fill="#94ab68"></path><path d="M-49.80,77.40 -33.80,69.40 -33.80,85.40 -49.80,93.40 z" fill="#a8c176"></path><path d="M-49.80,77.40 -65.80,69.40 -49.80,61.40 -33.80,69.40 z" fill="#c6e48b"></path></g> <g data-week="4" data-day="0" class="day"><path d="M66.40,34.40 50.40,26.40 50.40,42.40 66.40,50.40 z" fill="#94ab68"></path><path d="M66.40,34.40 82.40,26.40 82.40,42.40 66.40,50.40 z" fill="#a8c176"></path><path d="M66.40,34.40 50.40,26.40 66.40,18.40 82.40,26.40 z" fill="#c6e48b"></path></g> <g data-week="4" data-day="1" class="day"><path d="M49.80,43.00 33.80,35.00 33.80,51.00 49.80,59.00 z" fill="#12481d"></path><path d="M49.80,43.00 65.80,35.00 65.80,51.00 49.80,59.00 z" fill="#155121"></path><path d="M49.80,43.00 33.80,35.00 49.80,27.00 65.80,35.00 z" fill="#196027"></path></g> <g data-week="4" data-day="2" class="day"><path d="M33.20,51.60 17.20,43.60 17.20,59.60 33.20,67.60 z" fill="#5c9653"></path><path d="M33.20,51.60 49.20,43.60 49.20,59.60 33.20,67.60 z" fill="#68aa5e"></path><path d="M33.20,51.60 17.20,43.60 33.20,35.60 49.20,43.60 z" fill="#7bc96f"></path></g> <g data-week="4" data-day="3" class="day"><path d="M16.60,60.20 0.60,52.20 0.60,68.20 16.60,76.20 z" fill="#94ab68"></path><path d="M16.60,60.20 32.60,52.20 32.60,68.20 16.60,76.20 z" fill="#a8c176"></path><path d="M16.60,60.20 0.60,52.20 16.60,44.20 32.60,52.20 z" fill="#c6e48b"></path></g> <g data-week="4" data-day="4" class="day"><path d="M0.00,68.80 -16.00,60.80 -16.00,76.80 0.00,84.80 z" fill="#5c9653"></path><path d="M0.00,68.80 16.00,60.80 16.00,76.80 0.00,84.80 z" fill="#68aa5e"></path><path d="M0.00,68.80 -16.00,60.80 0.00,52.80 16.00,60.80 z" fill="#7bc96f"></path></g> <g data-week="4" data-day="5" class="day"><path d="M-16.60,77.40 -32.60,69.40 -32.60,85.40 -16.60,93.40 z" fill="#12481d"></path><path d="M-16.60,77.40 -0.60,69.40 -0.60,85.40 -16.60,93.40 z" fill="#155121"></path><path d="M-16.60,77.40 -32.60,69.40 -16.60,61.40 -0.60,69.40 z" fill="#196027"></path></g> <g data-week="4" data-day="6" class="day"><path d="M-33.20,86.00 -49.20,78.00 -49.20,94.00 -33.20,102.00 z" fill="#94ab68"></path><path d="M-33.20,86.00 -17.20,78.00 -17.20,94.00 -33.20,102.00 z" fill="#a8c176"></path><path d="M-33.20,86.00 -49.20,78.00 -33.20,70.00 -17.20,78.00 z" fill="#c6e48b"></path></g> <g data-week="5" data-day="0" class="day"><path d="M83.00,43.00 67.00,35.00 67.00,51.00 83.00,59.00 z" fill="#94ab68"></path><path d="M83.00,43.00 99.00,35.00 99.00,51.00 83.00,59.00 z" fill="#a8c176"></path><path d="M83.00,43.00 67.00,35.00 83.00,27.00 99.00,35.00 z" fill="#c6e48b"></path></g> <g data-week="5" data-day="1" class="day"><path d="M66.40,51.60 50.40,43.60 50.40,59.60 66.40,67.60 z" fill="#12481d"></path><path d="M66.40,51.60 82.40,43.60 82.40,59.60 66.40,67.60 z" fill="#155121"></path><path d="M66.40,51.60 50.40,43.60 66.40,35.60 82.40,43.60 z" fill="#196027"></path></g> <g data-week="5" data-day="2" class="day"><path d="M49.80,60.20 33.80,52.20 33.80,68.20 49.80,76.20 z" fill="#12481d"></path><path d="M49.80,60.20 65.80,52.20 65.80,68.20 49.80,76.20 z" fill="#155121"></path><path d="M49.80,60.20 33.80,52.20 49.80,44.20 65.80,52.20 z" fill="#196027"></path></g> <g data-week="5" data-day="3" class="day"><path d="M33.20,68.80 17.20,60.80 17.20,76.80 33.20,84.80 z" fill="#5c9653"></path><path d="M33.20,68.80 49.20,60.80 49.20,76.80 33.20,84.80 z" fill="#68aa5e"></path><path d="M33.20,68.80 17.20,60.80 33.20,52.80 49.20,60.80 z" fill="#7bc96f"></path></g> <g data-week="5" data-day="4" class="day"><path d="M16.60,77.40 0.60,69.40 0.60,85.40 16.60,93.40 z" fill="#12481d"></path><path d="M16.60,77.40 32.60,69.40 32.60,85.40 16.60,93.40 z" fill="#155121"></path><path d="M16.60,77.40 0.60,69.40 16.60,61.40 32.60,69.40 z" fill="#196027"></path></g> <g data-week="5" data-day="5" class="day"><path d="M0.00,86.00 -16.00,78.00 -16.00,94.00 0.00,102.00 z" fill="#5c9653"></path><path d="M0.00,86.00 16.00,78.00 16.00,94.00 0.00,102.00 z" fill="#68aa5e"></path><path d="M0.00,86.00 -16.00,78.00 0.00,70.00 16.00,78.00 z" fill="#7bc96f"></path></g> <g data-week="5" data-day="6" class="day"><path d="M-16.60,94.60 -32.60,86.60 -32.60,102.60 -16.60,110.60 z" fill="#94ab68"></path><path d="M-16.60,94.60 -0.60,86.60 -0.60,102.60 -16.60,110.60 z" fill="#a8c176"></path><path d="M-16.60,94.60 -32.60,86.60 -16.60,78.60 -0.60,86.60 z" fill="#c6e48b"></path></g> <g data-week="6" data-day="0" class="day"><path d="M99.60,51.60 83.60,43.60 83.60,59.60 99.60,67.60 z" fill="#94ab68"></path><path d="M99.60,51.60 115.60,43.60 115.60,59.60 99.60,67.60 z" fill="#a8c176"></path><path d="M99.60,51.60 83.60,43.60 99.60,35.60 115.60,43.60 z" fill="#c6e48b"></path></g> <g data-week="6" data-day="1" class="day"><path d="M83.00,60.20 67.00,52.20 67.00,68.20 83.00,76.20 z" fill="#94ab68"></path><path d="M83.00,60.20 99.00,52.20 99.00,68.20 83.00,76.20 z" fill="#a8c176"></path><path d="M83.00,60.20 67.00,52.20 83.00,44.20 99.00,52.20 z" fill="#c6e48b"></path></g> <g data-week="6" data-day="2" class="day"><path d="M66.40,81.60 50.40,73.60 50.40,76.80 66.40,84.80 z" fill="#b0b1b4"></path><path d="M66.40,81.60 82.40,73.60 82.40,76.80 66.40,84.80 z" fill="#c7c9cc"></path><path d="M66.40,81.60 50.40,73.60 66.40,65.60 82.40,73.60 z" fill="#ebedf0"></path></g> <g data-week="6" data-day="3" class="day"><path d="M49.80,90.20 33.80,82.20 33.80,85.40 49.80,93.40 z" fill="#b0b1b4"></path><path d="M49.80,90.20 65.80,82.20 65.80,85.40 49.80,93.40 z" fill="#c7c9cc"></path><path d="M49.80,90.20 33.80,82.20 49.80,74.20 65.80,82.20 z" fill="#ebedf0"></path></g> <g data-week="6" data-day="4" class="day"><path d="M33.20,86.00 17.20,78.00 17.20,94.00 33.20,102.00 z" fill="#94ab68"></path><path d="M33.20,86.00 49.20,78.00 49.20,94.00 33.20,102.00 z" fill="#a8c176"></path><path d="M33.20,86.00 17.20,78.00 33.20,70.00 49.20,78.00 z" fill="#c6e48b"></path></g> <g data-week="6" data-day="5" class="day"><path d="M16.60,107.40 0.60,99.40 0.60,102.60 16.60,110.60 z" fill="#b0b1b4"></path><path d="M16.60,107.40 32.60,99.40 32.60,102.60 16.60,110.60 z" fill="#c7c9cc"></path><path d="M16.60,107.40 0.60,99.40 16.60,91.40 32.60,99.40 z" fill="#ebedf0"></path></g> <g data-week="6" data-day="6" class="day"><path d="M0.00,103.20 -16.00,95.20 -16.00,111.20 0.00,119.20 z" fill="#94ab68"></path><path d="M0.00,103.20 16.00,95.20 16.00,111.20 0.00,119.20 z" fill="#a8c176"></path><path d="M0.00,103.20 -16.00,95.20 0.00,87.20 16.00,95.20 z" fill="#c6e48b"></path></g> <g data-week="7" data-day="0" class="day"><path d="M116.20,60.20 100.20,52.20 100.20,68.20 116.20,76.20 z" fill="#94ab68"></path><path d="M116.20,60.20 132.20,52.20 132.20,68.20 116.20,76.20 z" fill="#a8c176"></path><path d="M116.20,60.20 100.20,52.20 116.20,44.20 132.20,52.20 z" fill="#c6e48b"></path></g> <g data-week="7" data-day="1" class="day"><path d="M99.60,81.60 83.60,73.60 83.60,76.80 99.60,84.80 z" fill="#b0b1b4"></path><path d="M99.60,81.60 115.60,73.60 115.60,76.80 99.60,84.80 z" fill="#c7c9cc"></path><path d="M99.60,81.60 83.60,73.60 99.60,65.60 115.60,73.60 z" fill="#ebedf0"></path></g> <g data-week="7" data-day="2" class="day"><path d="M83.00,90.20 67.00,82.20 67.00,85.40 83.00,93.40 z" fill="#b0b1b4"></path><path d="M83.00,90.20 99.00,82.20 99.00,85.40 83.00,93.40 z" fill="#c7c9cc"></path><path d="M83.00,90.20 67.00,82.20 83.00,74.20 99.00,82.20 z" fill="#ebedf0"></path></g> <g data-week="7" data-day="3" class="day"><path d="M66.40,86.00 50.40,78.00 50.40,94.00 66.40,102.00 z" fill="#94ab68"></path><path d="M66.40,86.00 82.40,78.00 82.40,94.00 66.40,102.00 z" fill="#a8c176"></path><path d="M66.40,86.00 50.40,78.00 66.40,70.00 82.40,78.00 z" fill="#c6e48b"></path></g> <g data-week="7" data-day="4" class="day"><path d="M49.80,94.60 33.80,86.60 33.80,102.60 49.80,110.60 z" fill="#94ab68"></path><path d="M49.80,94.60 65.80,86.60 65.80,102.60 49.80,110.60 z" fill="#a8c176"></path><path d="M49.80,94.60 33.80,86.60 49.80,78.60 65.80,86.60 z" fill="#c6e48b"></path></g> <g data-week="7" data-day="5" class="day"><path d="M33.20,103.20 17.20,95.20 17.20,111.20 33.20,119.20 z" fill="#94ab68"></path><path d="M33.20,103.20 49.20,95.20 49.20,111.20 33.20,119.20 z" fill="#a8c176"></path><path d="M33.20,103.20 17.20,95.20 33.20,87.20 49.20,95.20 z" fill="#c6e48b"></path></g> <g data-week="7" data-day="6" class="day"><path d="M16.60,124.60 0.60,116.60 0.60,119.80 16.60,127.80 z" fill="#b0b1b4"></path><path d="M16.60,124.60 32.60,116.60 32.60,119.80 16.60,127.80 z" fill="#c7c9cc"></path><path d="M16.60,124.60 0.60,116.60 16.60,108.60 32.60,116.60 z" fill="#ebedf0"></path></g> <g data-week="8" data-day="0" class="day"><path d="M132.80,81.60 116.80,73.60 116.80,76.80 132.80,84.80 z" fill="#b0b1b4"></path><path d="M132.80,81.60 148.80,73.60 148.80,76.80 132.80,84.80 z" fill="#c7c9cc"></path><path d="M132.80,81.60 116.80,73.60 132.80,65.60 148.80,73.60 z" fill="#ebedf0"></path></g> <g data-week="8" data-day="1" class="day"><path d="M116.20,90.20 100.20,82.20 100.20,85.40 116.20,93.40 z" fill="#b0b1b4"></path><path d="M116.20,90.20 132.20,82.20 132.20,85.40 116.20,93.40 z" fill="#c7c9cc"></path><path d="M116.20,90.20 100.20,82.20 116.20,74.20 132.20,82.20 z" fill="#ebedf0"></path></g> <g data-week="8" data-day="2" class="day"><path d="M99.60,86.00 83.60,78.00 83.60,94.00 99.60,102.00 z" fill="#94ab68"></path><path d="M99.60,86.00 115.60,78.00 115.60,94.00 99.60,102.00 z" fill="#a8c176"></path><path d="M99.60,86.00 83.60,78.00 99.60,70.00 115.60,78.00 z" fill="#c6e48b"></path></g> <g data-week="8" data-day="3" class="day"><path d="M83.00,94.60 67.00,86.60 67.00,102.60 83.00,110.60 z" fill="#94ab68"></path><path d="M83.00,94.60 99.00,86.60 99.00,102.60 83.00,110.60 z" fill="#a8c176"></path><path d="M83.00,94.60 67.00,86.60 83.00,78.60 99.00,86.60 z" fill="#c6e48b"></path></g> <g data-week="8" data-day="4" class="day"><path d="M66.40,116.00 50.40,108.00 50.40,111.20 66.40,119.20 z" fill="#b0b1b4"></path><path d="M66.40,116.00 82.40,108.00 82.40,111.20 66.40,119.20 z" fill="#c7c9cc"></path><path d="M66.40,116.00 50.40,108.00 66.40,100.00 82.40,108.00 z" fill="#ebedf0"></path></g> <g data-week="8" data-day="5" class="day"><path d="M49.80,124.60 33.80,116.60 33.80,119.80 49.80,127.80 z" fill="#b0b1b4"></path><path d="M49.80,124.60 65.80,116.60 65.80,119.80 49.80,127.80 z" fill="#c7c9cc"></path><path d="M49.80,124.60 33.80,116.60 49.80,108.60 65.80,116.60 z" fill="#ebedf0"></path></g> <g data-week="8" data-day="6" class="day"><path d="M33.20,133.20 17.20,125.20 17.20,128.40 33.20,136.40 z" fill="#b0b1b4"></path><path d="M33.20,133.20 49.20,125.20 49.20,128.40 33.20,136.40 z" fill="#c7c9cc"></path><path d="M33.20,133.20 17.20,125.20 33.20,117.20 49.20,125.20 z" fill="#ebedf0"></path></g> <g data-week="9" data-day="0" class="day"><path d="M149.40,77.40 133.40,69.40 133.40,85.40 149.40,93.40 z" fill="#94ab68"></path><path d="M149.40,77.40 165.40,69.40 165.40,85.40 149.40,93.40 z" fill="#a8c176"></path><path d="M149.40,77.40 133.40,69.40 149.40,61.40 165.40,69.40 z" fill="#c6e48b"></path></g> <g data-week="9" data-day="1" class="day"><path d="M132.80,86.00 116.80,78.00 116.80,94.00 132.80,102.00 z" fill="#94ab68"></path><path d="M132.80,86.00 148.80,78.00 148.80,94.00 132.80,102.00 z" fill="#a8c176"></path><path d="M132.80,86.00 116.80,78.00 132.80,70.00 148.80,78.00 z" fill="#c6e48b"></path></g> <g data-week="9" data-day="2" class="day"><path d="M116.20,94.60 100.20,86.60 100.20,102.60 116.20,110.60 z" fill="#94ab68"></path><path d="M116.20,94.60 132.20,86.60 132.20,102.60 116.20,110.60 z" fill="#a8c176"></path><path d="M116.20,94.60 100.20,86.60 116.20,78.60 132.20,86.60 z" fill="#c6e48b"></path></g> <g data-week="9" data-day="3" class="day"><path d="M99.60,116.00 83.60,108.00 83.60,111.20 99.60,119.20 z" fill="#b0b1b4"></path><path d="M99.60,116.00 115.60,108.00 115.60,111.20 99.60,119.20 z" fill="#c7c9cc"></path><path d="M99.60,116.00 83.60,108.00 99.60,100.00 115.60,108.00 z" fill="#ebedf0"></path></g> <g data-week="9" data-day="4" class="day"><path d="M83.00,111.80 67.00,103.80 67.00,119.80 83.00,127.80 z" fill="#94ab68"></path><path d="M83.00,111.80 99.00,103.80 99.00,119.80 83.00,127.80 z" fill="#a8c176"></path><path d="M83.00,111.80 67.00,103.80 83.00,95.80 99.00,103.80 z" fill="#c6e48b"></path></g> <g data-week="9" data-day="5" class="day"><path d="M66.40,120.40 50.40,112.40 50.40,128.40 66.40,136.40 z" fill="#94ab68"></path><path d="M66.40,120.40 82.40,112.40 82.40,128.40 66.40,136.40 z" fill="#a8c176"></path><path d="M66.40,120.40 50.40,112.40 66.40,104.40 82.40,112.40 z" fill="#c6e48b"></path></g> <g data-week="9" data-day="6" class="day"><path d="M49.80,141.80 33.80,133.80 33.80,137.00 49.80,145.00 z" fill="#b0b1b4"></path><path d="M49.80,141.80 65.80,133.80 65.80,137.00 49.80,145.00 z" fill="#c7c9cc"></path><path d="M49.80,141.80 33.80,133.80 49.80,125.80 65.80,133.80 z" fill="#ebedf0"></path></g> <g data-week="10" data-day="0" class="day"><path d="M166.00,98.80 150.00,90.80 150.00,94.00 166.00,102.00 z" fill="#b0b1b4"></path><path d="M166.00,98.80 182.00,90.80 182.00,94.00 166.00,102.00 z" fill="#c7c9cc"></path><path d="M166.00,98.80 150.00,90.80 166.00,82.80 182.00,90.80 z" fill="#ebedf0"></path></g> <g data-week="10" data-day="1" class="day"><path d="M149.40,94.60 133.40,86.60 133.40,102.60 149.40,110.60 z" fill="#5c9653"></path><path d="M149.40,94.60 165.40,86.60 165.40,102.60 149.40,110.60 z" fill="#68aa5e"></path><path d="M149.40,94.60 133.40,86.60 149.40,78.60 165.40,86.60 z" fill="#7bc96f"></path></g> <g data-week="10" data-day="2" class="day"><path d="M132.80,103.20 116.80,95.20 116.80,111.20 132.80,119.20 z" fill="#94ab68"></path><path d="M132.80,103.20 148.80,95.20 148.80,111.20 132.80,119.20 z" fill="#a8c176"></path><path d="M132.80,103.20 116.80,95.20 132.80,87.20 148.80,95.20 z" fill="#c6e48b"></path></g> <g data-week="10" data-day="3" class="day"><path d="M116.20,111.80 100.20,103.80 100.20,119.80 116.20,127.80 z" fill="#94ab68"></path><path d="M116.20,111.80 132.20,103.80 132.20,119.80 116.20,127.80 z" fill="#a8c176"></path><path d="M116.20,111.80 100.20,103.80 116.20,95.80 132.20,103.80 z" fill="#c6e48b"></path></g> <g data-week="10" data-day="4" class="day"><path d="M99.60,120.40 83.60,112.40 83.60,128.40 99.60,136.40 z" fill="#94ab68"></path><path d="M99.60,120.40 115.60,112.40 115.60,128.40 99.60,136.40 z" fill="#a8c176"></path><path d="M99.60,120.40 83.60,112.40 99.60,104.40 115.60,112.40 z" fill="#c6e48b"></path></g> <g data-week="10" data-day="5" class="day"><path d="M83.00,129.00 67.00,121.00 67.00,137.00 83.00,145.00 z" fill="#5c9653"></path><path d="M83.00,129.00 99.00,121.00 99.00,137.00 83.00,145.00 z" fill="#68aa5e"></path><path d="M83.00,129.00 67.00,121.00 83.00,113.00 99.00,121.00 z" fill="#7bc96f"></path></g> <g data-week="10" data-day="6" class="day"><path d="M66.40,150.40 50.40,142.40 50.40,145.60 66.40,153.60 z" fill="#b0b1b4"></path><path d="M66.40,150.40 82.40,142.40 82.40,145.60 66.40,153.60 z" fill="#c7c9cc"></path><path d="M66.40,150.40 50.40,142.40 66.40,134.40 82.40,142.40 z" fill="#ebedf0"></path></g> <g data-week="11" data-day="0" class="day"><path d="M182.60,94.60 166.60,86.60 166.60,102.60 182.60,110.60 z" fill="#94ab68"></path><path d="M182.60,94.60 198.60,86.60 198.60,102.60 182.60,110.60 z" fill="#a8c176"></path><path d="M182.60,94.60 166.60,86.60 182.60,78.60 198.60,86.60 z" fill="#c6e48b"></path></g> <g data-week="11" data-day="1" class="day"><path d="M166.00,103.20 150.00,95.20 150.00,111.20 166.00,119.20 z" fill="#5c9653"></path><path d="M166.00,103.20 182.00,95.20 182.00,111.20 166.00,119.20 z" fill="#68aa5e"></path><path d="M166.00,103.20 150.00,95.20 166.00,87.20 182.00,95.20 z" fill="#7bc96f"></path></g> <g data-week="11" data-day="2" class="day"><path d="M149.40,111.80 133.40,103.80 133.40,119.80 149.40,127.80 z" fill="#94ab68"></path><path d="M149.40,111.80 165.40,103.80 165.40,119.80 149.40,127.80 z" fill="#a8c176"></path><path d="M149.40,111.80 133.40,103.80 149.40,95.80 165.40,103.80 z" fill="#c6e48b"></path></g> <g data-week="11" data-day="3" class="day"><path d="M132.80,120.40 116.80,112.40 116.80,128.40 132.80,136.40 z" fill="#94ab68"></path><path d="M132.80,120.40 148.80,112.40 148.80,128.40 132.80,136.40 z" fill="#a8c176"></path><path d="M132.80,120.40 116.80,112.40 132.80,104.40 148.80,112.40 z" fill="#c6e48b"></path></g> <g data-week="11" data-day="4" class="day"><path d="M116.20,129.00 100.20,121.00 100.20,137.00 116.20,145.00 z" fill="#94ab68"></path><path d="M116.20,129.00 132.20,121.00 132.20,137.00 116.20,145.00 z" fill="#a8c176"></path><path d="M116.20,129.00 100.20,121.00 116.20,113.00 132.20,121.00 z" fill="#c6e48b"></path></g> <g data-week="11" data-day="5" class="day"><path d="M99.60,137.60 83.60,129.60 83.60,145.60 99.60,153.60 z" fill="#94ab68"></path><path d="M99.60,137.60 115.60,129.60 115.60,145.60 99.60,153.60 z" fill="#a8c176"></path><path d="M99.60,137.60 83.60,129.60 99.60,121.60 115.60,129.60 z" fill="#c6e48b"></path></g> <g data-week="11" data-day="6" class="day"><path d="M83.00,159.00 67.00,151.00 67.00,154.20 83.00,162.20 z" fill="#b0b1b4"></path><path d="M83.00,159.00 99.00,151.00 99.00,154.20 83.00,162.20 z" fill="#c7c9cc"></path><path d="M83.00,159.00 67.00,151.00 83.00,143.00 99.00,151.00 z" fill="#ebedf0"></path></g> <g data-week="12" data-day="0" class="day"><path d="M199.20,116.00 183.20,108.00 183.20,111.20 199.20,119.20 z" fill="#b0b1b4"></path><path d="M199.20,116.00 215.20,108.00 215.20,111.20 199.20,119.20 z" fill="#c7c9cc"></path><path d="M199.20,116.00 183.20,108.00 199.20,100.00 215.20,108.00 z" fill="#ebedf0"></path></g> <g data-week="12" data-day="1" class="day"><path d="M182.60,111.80 166.60,103.80 166.60,119.80 182.60,127.80 z" fill="#94ab68"></path><path d="M182.60,111.80 198.60,103.80 198.60,119.80 182.60,127.80 z" fill="#a8c176"></path><path d="M182.60,111.80 166.60,103.80 182.60,95.80 198.60,103.80 z" fill="#c6e48b"></path></g> <g data-week="12" data-day="2" class="day"><path d="M166.00,120.40 150.00,112.40 150.00,128.40 166.00,136.40 z" fill="#94ab68"></path><path d="M166.00,120.40 182.00,112.40 182.00,128.40 166.00,136.40 z" fill="#a8c176"></path><path d="M166.00,120.40 150.00,112.40 166.00,104.40 182.00,112.40 z" fill="#c6e48b"></path></g> <g data-week="12" data-day="3" class="day"><path d="M149.40,129.00 133.40,121.00 133.40,137.00 149.40,145.00 z" fill="#5c9653"></path><path d="M149.40,129.00 165.40,121.00 165.40,137.00 149.40,145.00 z" fill="#68aa5e"></path><path d="M149.40,129.00 133.40,121.00 149.40,113.00 165.40,121.00 z" fill="#7bc96f"></path></g> <g data-week="12" data-day="4" class="day"><path d="M132.80,137.60 116.80,129.60 116.80,145.60 132.80,153.60 z" fill="#94ab68"></path><path d="M132.80,137.60 148.80,129.60 148.80,145.60 132.80,153.60 z" fill="#a8c176"></path><path d="M132.80,137.60 116.80,129.60 132.80,121.60 148.80,129.60 z" fill="#c6e48b"></path></g> <g data-week="12" data-day="5" class="day"><path d="M116.20,159.00 100.20,151.00 100.20,154.20 116.20,162.20 z" fill="#b0b1b4"></path><path d="M116.20,159.00 132.20,151.00 132.20,154.20 116.20,162.20 z" fill="#c7c9cc"></path><path d="M116.20,159.00 100.20,151.00 116.20,143.00 132.20,151.00 z" fill="#ebedf0"></path></g> <g data-week="12" data-day="6" class="day"><path d="M99.60,167.60 83.60,159.60 83.60,162.80 99.60,170.80 z" fill="#b0b1b4"></path><path d="M99.60,167.60 115.60,159.60 115.60,162.80 99.60,170.80 z" fill="#c7c9cc"></path><path d="M99.60,167.60 83.60,159.60 99.60,151.60 115.60,159.60 z" fill="#ebedf0"></path></g> <g data-week="13" data-day="0" class="day"><path d="M215.80,111.80 199.80,103.80 199.80,119.80 215.80,127.80 z" fill="#94ab68"></path><path d="M215.80,111.80 231.80,103.80 231.80,119.80 215.80,127.80 z" fill="#a8c176"></path><path d="M215.80,111.80 199.80,103.80 215.80,95.80 231.80,103.80 z" fill="#c6e48b"></path></g> <g data-week="13" data-day="1" class="day"><path d="M199.20,120.40 183.20,112.40 183.20,128.40 199.20,136.40 z" fill="#94ab68"></path><path d="M199.20,120.40 215.20,112.40 215.20,128.40 199.20,136.40 z" fill="#a8c176"></path><path d="M199.20,120.40 183.20,112.40 199.20,104.40 215.20,112.40 z" fill="#c6e48b"></path></g> <g data-week="13" data-day="2" class="day"><path d="M182.60,141.80 166.60,133.80 166.60,137.00 182.60,145.00 z" fill="#b0b1b4"></path><path d="M182.60,141.80 198.60,133.80 198.60,137.00 182.60,145.00 z" fill="#c7c9cc"></path><path d="M182.60,141.80 166.60,133.80 182.60,125.80 198.60,133.80 z" fill="#ebedf0"></path></g> <g data-week="13" data-day="3" class="day"><path d="M166.00,137.60 150.00,129.60 150.00,145.60 166.00,153.60 z" fill="#94ab68"></path><path d="M166.00,137.60 182.00,129.60 182.00,145.60 166.00,153.60 z" fill="#a8c176"></path><path d="M166.00,137.60 150.00,129.60 166.00,121.60 182.00,129.60 z" fill="#c6e48b"></path></g> <g data-week="13" data-day="4" class="day"><path d="M149.40,146.20 133.40,138.20 133.40,154.20 149.40,162.20 z" fill="#94ab68"></path><path d="M149.40,146.20 165.40,138.20 165.40,154.20 149.40,162.20 z" fill="#a8c176"></path><path d="M149.40,146.20 133.40,138.20 149.40,130.20 165.40,138.20 z" fill="#c6e48b"></path></g> <g data-week="13" data-day="5" class="day"><path d="M132.80,154.80 116.80,146.80 116.80,162.80 132.80,170.80 z" fill="#5c9653"></path><path d="M132.80,154.80 148.80,146.80 148.80,162.80 132.80,170.80 z" fill="#68aa5e"></path><path d="M132.80,154.80 116.80,146.80 132.80,138.80 148.80,146.80 z" fill="#7bc96f"></path></g> <g data-week="13" data-day="6" class="day"><path d="M116.20,176.20 100.20,168.20 100.20,171.40 116.20,179.40 z" fill="#b0b1b4"></path><path d="M116.20,176.20 132.20,168.20 132.20,171.40 116.20,179.40 z" fill="#c7c9cc"></path><path d="M116.20,176.20 100.20,168.20 116.20,160.20 132.20,168.20 z" fill="#ebedf0"></path></g> <g data-week="14" data-day="0" class="day"><path d="M232.40,120.40 216.40,112.40 216.40,128.40 232.40,136.40 z" fill="#12481d"></path><path d="M232.40,120.40 248.40,112.40 248.40,128.40 232.40,136.40 z" fill="#155121"></path><path d="M232.40,120.40 216.40,112.40 232.40,104.40 248.40,112.40 z" fill="#196027"></path></g> <g data-week="14" data-day="1" class="day"><path d="M215.80,129.00 199.80,121.00 199.80,137.00 215.80,145.00 z" fill="#5c9653"></path><path d="M215.80,129.00 231.80,121.00 231.80,137.00 215.80,145.00 z" fill="#68aa5e"></path><path d="M215.80,129.00 199.80,121.00 215.80,113.00 231.80,121.00 z" fill="#7bc96f"></path></g> <g data-week="14" data-day="2" class="day"><path d="M199.20,137.60 183.20,129.60 183.20,145.60 199.20,153.60 z" fill="#5c9653"></path><path d="M199.20,137.60 215.20,129.60 215.20,145.60 199.20,153.60 z" fill="#68aa5e"></path><path d="M199.20,137.60 183.20,129.60 199.20,121.60 215.20,129.60 z" fill="#7bc96f"></path></g> <g data-week="14" data-day="3" class="day"><path d="M182.60,146.20 166.60,138.20 166.60,154.20 182.60,162.20 z" fill="#94ab68"></path><path d="M182.60,146.20 198.60,138.20 198.60,154.20 182.60,162.20 z" fill="#a8c176"></path><path d="M182.60,146.20 166.60,138.20 182.60,130.20 198.60,138.20 z" fill="#c6e48b"></path></g> <g data-week="14" data-day="4" class="day"><path d="M166.00,154.80 150.00,146.80 150.00,162.80 166.00,170.80 z" fill="#5c9653"></path><path d="M166.00,154.80 182.00,146.80 182.00,162.80 166.00,170.80 z" fill="#68aa5e"></path><path d="M166.00,154.80 150.00,146.80 166.00,138.80 182.00,146.80 z" fill="#7bc96f"></path></g> <g data-week="14" data-day="5" class="day"><path d="M149.40,163.40 133.40,155.40 133.40,171.40 149.40,179.40 z" fill="#94ab68"></path><path d="M149.40,163.40 165.40,155.40 165.40,171.40 149.40,179.40 z" fill="#a8c176"></path><path d="M149.40,163.40 133.40,155.40 149.40,147.40 165.40,155.40 z" fill="#c6e48b"></path></g> <g data-week="14" data-day="6" class="day"><path d="M132.80,184.80 116.80,176.80 116.80,180.00 132.80,188.00 z" fill="#b0b1b4"></path><path d="M132.80,184.80 148.80,176.80 148.80,180.00 132.80,188.00 z" fill="#c7c9cc"></path><path d="M132.80,184.80 116.80,176.80 132.80,168.80 148.80,176.80 z" fill="#ebedf0"></path></g> <g data-week="15" data-day="0" class="day"><path d="M249.00,141.80 233.00,133.80 233.00,137.00 249.00,145.00 z" fill="#b0b1b4"></path><path d="M249.00,141.80 265.00,133.80 265.00,137.00 249.00,145.00 z" fill="#c7c9cc"></path><path d="M249.00,141.80 233.00,133.80 249.00,125.80 265.00,133.80 z" fill="#ebedf0"></path></g> <g data-week="15" data-day="1" class="day"><path d="M232.40,137.60 216.40,129.60 216.40,145.60 232.40,153.60 z" fill="#94ab68"></path><path d="M232.40,137.60 248.40,129.60 248.40,145.60 232.40,153.60 z" fill="#a8c176"></path><path d="M232.40,137.60 216.40,129.60 232.40,121.60 248.40,129.60 z" fill="#c6e48b"></path></g> <g data-week="15" data-day="2" class="day"><path d="M215.80,146.20 199.80,138.20 199.80,154.20 215.80,162.20 z" fill="#94ab68"></path><path d="M215.80,146.20 231.80,138.20 231.80,154.20 215.80,162.20 z" fill="#a8c176"></path><path d="M215.80,146.20 199.80,138.20 215.80,130.20 231.80,138.20 z" fill="#c6e48b"></path></g> <g data-week="15" data-day="3" class="day"><path d="M199.20,154.80 183.20,146.80 183.20,162.80 199.20,170.80 z" fill="#12481d"></path><path d="M199.20,154.80 215.20,146.80 215.20,162.80 199.20,170.80 z" fill="#155121"></path><path d="M199.20,154.80 183.20,146.80 199.20,138.80 215.20,146.80 z" fill="#196027"></path></g> <g data-week="15" data-day="4" class="day"><path d="M182.60,163.40 166.60,155.40 166.60,171.40 182.60,179.40 z" fill="#94ab68"></path><path d="M182.60,163.40 198.60,155.40 198.60,171.40 182.60,179.40 z" fill="#a8c176"></path><path d="M182.60,163.40 166.60,155.40 182.60,147.40 198.60,155.40 z" fill="#c6e48b"></path></g> <g data-week="15" data-day="5" class="day"><path d="M166.00,172.00 150.00,164.00 150.00,180.00 166.00,188.00 z" fill="#94ab68"></path><path d="M166.00,172.00 182.00,164.00 182.00,180.00 166.00,188.00 z" fill="#a8c176"></path><path d="M166.00,172.00 150.00,164.00 166.00,156.00 182.00,164.00 z" fill="#c6e48b"></path></g> <g data-week="15" data-day="6" class="day"><path d="M149.40,193.40 133.40,185.40 133.40,188.60 149.40,196.60 z" fill="#b0b1b4"></path><path d="M149.40,193.40 165.40,185.40 165.40,188.60 149.40,196.60 z" fill="#c7c9cc"></path><path d="M149.40,193.40 133.40,185.40 149.40,177.40 165.40,185.40 z" fill="#ebedf0"></path></g> <g data-week="16" data-day="0" class="day"><path d="M265.60,137.60 249.60,129.60 249.60,145.60 265.60,153.60 z" fill="#94ab68"></path><path d="M265.60,137.60 281.60,129.60 281.60,145.60 265.60,153.60 z" fill="#a8c176"></path><path d="M265.60,137.60 249.60,129.60 265.60,121.60 281.60,129.60 z" fill="#c6e48b"></path></g> <g data-week="16" data-day="1" class="day"><path d="M249.00,146.20 233.00,138.20 233.00,154.20 249.00,162.20 z" fill="#94ab68"></path><path d="M249.00,146.20 265.00,138.20 265.00,154.20 249.00,162.20 z" fill="#a8c176"></path><path d="M249.00,146.20 233.00,138.20 249.00,130.20 265.00,138.20 z" fill="#c6e48b"></path></g> <g data-week="16" data-day="2" class="day"><path d="M232.40,154.80 216.40,146.80 216.40,162.80 232.40,170.80 z" fill="#94ab68"></path><path d="M232.40,154.80 248.40,146.80 248.40,162.80 232.40,170.80 z" fill="#a8c176"></path><path d="M232.40,154.80 216.40,146.80 232.40,138.80 248.40,146.80 z" fill="#c6e48b"></path></g> <g data-week="16" data-day="3" class="day"><path d="M215.80,176.20 199.80,168.20 199.80,171.40 215.80,179.40 z" fill="#b0b1b4"></path><path d="M215.80,176.20 231.80,168.20 231.80,171.40 215.80,179.40 z" fill="#c7c9cc"></path><path d="M215.80,176.20 199.80,168.20 215.80,160.20 231.80,168.20 z" fill="#ebedf0"></path></g> <g data-week="16" data-day="4" class="day"><path d="M199.20,184.80 183.20,176.80 183.20,180.00 199.20,188.00 z" fill="#b0b1b4"></path><path d="M199.20,184.80 215.20,176.80 215.20,180.00 199.20,188.00 z" fill="#c7c9cc"></path><path d="M199.20,184.80 183.20,176.80 199.20,168.80 215.20,176.80 z" fill="#ebedf0"></path></g> <g data-week="16" data-day="5" class="day"><path d="M182.60,193.40 166.60,185.40 166.60,188.60 182.60,196.60 z" fill="#b0b1b4"></path><path d="M182.60,193.40 198.60,185.40 198.60,188.60 182.60,196.60 z" fill="#c7c9cc"></path><path d="M182.60,193.40 166.60,185.40 182.60,177.40 198.60,185.40 z" fill="#ebedf0"></path></g> <g data-week="16" data-day="6" class="day"><path d="M166.00,202.00 150.00,194.00 150.00,197.20 166.00,205.20 z" fill="#b0b1b4"></path><path d="M166.00,202.00 182.00,194.00 182.00,197.20 166.00,205.20 z" fill="#c7c9cc"></path><path d="M166.00,202.00 150.00,194.00 166.00,186.00 182.00,194.00 z" fill="#ebedf0"></path></g> <g data-week="17" data-day="0" class="day"><path d="M282.20,159.00 266.20,151.00 266.20,154.20 282.20,162.20 z" fill="#b0b1b4"></path><path d="M282.20,159.00 298.20,151.00 298.20,154.20 282.20,162.20 z" fill="#c7c9cc"></path><path d="M282.20,159.00 266.20,151.00 282.20,143.00 298.20,151.00 z" fill="#ebedf0"></path></g> <g data-week="17" data-day="1" class="day"><path d="M265.60,167.60 249.60,159.60 249.60,162.80 265.60,170.80 z" fill="#b0b1b4"></path><path d="M265.60,167.60 281.60,159.60 281.60,162.80 265.60,170.80 z" fill="#c7c9cc"></path><path d="M265.60,167.60 249.60,159.60 265.60,151.60 281.60,159.60 z" fill="#ebedf0"></path></g> <g data-week="17" data-day="2" class="day"><path d="M249.00,176.20 233.00,168.20 233.00,171.40 249.00,179.40 z" fill="#b0b1b4"></path><path d="M249.00,176.20 265.00,168.20 265.00,171.40 249.00,179.40 z" fill="#c7c9cc"></path><path d="M249.00,176.20 233.00,168.20 249.00,160.20 265.00,168.20 z" fill="#ebedf0"></path></g> <g data-week="17" data-day="3" class="day"><path d="M232.40,184.80 216.40,176.80 216.40,180.00 232.40,188.00 z" fill="#b0b1b4"></path><path d="M232.40,184.80 248.40,176.80 248.40,180.00 232.40,188.00 z" fill="#c7c9cc"></path><path d="M232.40,184.80 216.40,176.80 232.40,168.80 248.40,176.80 z" fill="#ebedf0"></path></g> <g data-week="17" data-day="4" class="day"><path d="M215.80,180.60 199.80,172.60 199.80,188.60 215.80,196.60 z" fill="#94ab68"></path><path d="M215.80,180.60 231.80,172.60 231.80,188.60 215.80,196.60 z" fill="#a8c176"></path><path d="M215.80,180.60 199.80,172.60 215.80,164.60 231.80,172.60 z" fill="#c6e48b"></path></g> <g data-week="17" data-day="5" class="day"><path d="M199.20,189.20 183.20,181.20 183.20,197.20 199.20,205.20 z" fill="#5c9653"></path><path d="M199.20,189.20 215.20,181.20 215.20,197.20 199.20,205.20 z" fill="#68aa5e"></path><path d="M199.20,189.20 183.20,181.20 199.20,173.20 215.20,181.20 z" fill="#7bc96f"></path></g> <g data-week="17" data-day="6" class="day"><path d="M182.60,197.80 166.60,189.80 166.60,205.80 182.60,213.80 z" fill="#94ab68"></path><path d="M182.60,197.80 198.60,189.80 198.60,205.80 182.60,213.80 z" fill="#a8c176"></path><path d="M182.60,197.80 166.60,189.80 182.60,181.80 198.60,189.80 z" fill="#c6e48b"></path></g> <g data-week="18" data-day="0" class="day"><path d="M298.80,154.80 282.80,146.80 282.80,162.80 298.80,170.80 z" fill="#94ab68"></path><path d="M298.80,154.80 314.80,146.80 314.80,162.80 298.80,170.80 z" fill="#a8c176"></path><path d="M298.80,154.80 282.80,146.80 298.80,138.80 314.80,146.80 z" fill="#c6e48b"></path></g> <g data-week="18" data-day="1" class="day"><path d="M282.20,163.40 266.20,155.40 266.20,171.40 282.20,179.40 z" fill="#94ab68"></path><path d="M282.20,163.40 298.20,155.40 298.20,171.40 282.20,179.40 z" fill="#a8c176"></path><path d="M282.20,163.40 266.20,155.40 282.20,147.40 298.20,155.40 z" fill="#c6e48b"></path></g> <g data-week="18" data-day="2" class="day"><path d="M265.60,172.00 249.60,164.00 249.60,180.00 265.60,188.00 z" fill="#94ab68"></path><path d="M265.60,172.00 281.60,164.00 281.60,180.00 265.60,188.00 z" fill="#a8c176"></path><path d="M265.60,172.00 249.60,164.00 265.60,156.00 281.60,164.00 z" fill="#c6e48b"></path></g> <g data-week="18" data-day="3" class="day"><path d="M249.00,193.40 233.00,185.40 233.00,188.60 249.00,196.60 z" fill="#b0b1b4"></path><path d="M249.00,193.40 265.00,185.40 265.00,188.60 249.00,196.60 z" fill="#c7c9cc"></path><path d="M249.00,193.40 233.00,185.40 249.00,177.40 265.00,185.40 z" fill="#ebedf0"></path></g> <g data-week="18" data-day="4" class="day"><path d="M232.40,189.20 216.40,181.20 216.40,197.20 232.40,205.20 z" fill="#94ab68"></path><path d="M232.40,189.20 248.40,181.20 248.40,197.20 232.40,205.20 z" fill="#a8c176"></path><path d="M232.40,189.20 216.40,181.20 232.40,173.20 248.40,181.20 z" fill="#c6e48b"></path></g> <g data-week="18" data-day="5" class="day"><path d="M215.80,197.80 199.80,189.80 199.80,205.80 215.80,213.80 z" fill="#94ab68"></path><path d="M215.80,197.80 231.80,189.80 231.80,205.80 215.80,213.80 z" fill="#a8c176"></path><path d="M215.80,197.80 199.80,189.80 215.80,181.80 231.80,189.80 z" fill="#c6e48b"></path></g> <g data-week="18" data-day="6" class="day"><path d="M199.20,219.20 183.20,211.20 183.20,214.40 199.20,222.40 z" fill="#b0b1b4"></path><path d="M199.20,219.20 215.20,211.20 215.20,214.40 199.20,222.40 z" fill="#c7c9cc"></path><path d="M199.20,219.20 183.20,211.20 199.20,203.20 215.20,211.20 z" fill="#ebedf0"></path></g> <g data-week="19" data-day="0" class="day"><path d="M315.40,176.20 299.40,168.20 299.40,171.40 315.40,179.40 z" fill="#b0b1b4"></path><path d="M315.40,176.20 331.40,168.20 331.40,171.40 315.40,179.40 z" fill="#c7c9cc"></path><path d="M315.40,176.20 299.40,168.20 315.40,160.20 331.40,168.20 z" fill="#ebedf0"></path></g> <g data-week="19" data-day="1" class="day"><path d="M298.80,184.80 282.80,176.80 282.80,180.00 298.80,188.00 z" fill="#b0b1b4"></path><path d="M298.80,184.80 314.80,176.80 314.80,180.00 298.80,188.00 z" fill="#c7c9cc"></path><path d="M298.80,184.80 282.80,176.80 298.80,168.80 314.80,176.80 z" fill="#ebedf0"></path></g> <g data-week="19" data-day="2" class="day"><path d="M282.20,180.60 266.20,172.60 266.20,188.60 282.20,196.60 z" fill="#94ab68"></path><path d="M282.20,180.60 298.20,172.60 298.20,188.60 282.20,196.60 z" fill="#a8c176"></path><path d="M282.20,180.60 266.20,172.60 282.20,164.60 298.20,172.60 z" fill="#c6e48b"></path></g> <g data-week="19" data-day="3" class="day"><path d="M265.60,189.20 249.60,181.20 249.60,197.20 265.60,205.20 z" fill="#94ab68"></path><path d="M265.60,189.20 281.60,181.20 281.60,197.20 265.60,205.20 z" fill="#a8c176"></path><path d="M265.60,189.20 249.60,181.20 265.60,173.20 281.60,181.20 z" fill="#c6e48b"></path></g> <g data-week="19" data-day="4" class="day"><path d="M249.00,197.80 233.00,189.80 233.00,205.80 249.00,213.80 z" fill="#5c9653"></path><path d="M249.00,197.80 265.00,189.80 265.00,205.80 249.00,213.80 z" fill="#68aa5e"></path><path d="M249.00,197.80 233.00,189.80 249.00,181.80 265.00,189.80 z" fill="#7bc96f"></path></g> <g data-week="19" data-day="5" class="day"><path d="M232.40,219.20 216.40,211.20 216.40,214.40 232.40,222.40 z" fill="#b0b1b4"></path><path d="M232.40,219.20 248.40,211.20 248.40,214.40 232.40,222.40 z" fill="#c7c9cc"></path><path d="M232.40,219.20 216.40,211.20 232.40,203.20 248.40,211.20 z" fill="#ebedf0"></path></g> <g data-week="19" data-day="6" class="day"><path d="M215.80,227.80 199.80,219.80 199.80,223.00 215.80,231.00 z" fill="#b0b1b4"></path><path d="M215.80,227.80 231.80,219.80 231.80,223.00 215.80,231.00 z" fill="#c7c9cc"></path><path d="M215.80,227.80 199.80,219.80 215.80,211.80 231.80,219.80 z" fill="#ebedf0"></path></g> <g data-week="20" data-day="0" class="day"><path d="M332.00,184.80 316.00,176.80 316.00,180.00 332.00,188.00 z" fill="#b0b1b4"></path><path d="M332.00,184.80 348.00,176.80 348.00,180.00 332.00,188.00 z" fill="#c7c9cc"></path><path d="M332.00,184.80 316.00,176.80 332.00,168.80 348.00,176.80 z" fill="#ebedf0"></path></g> <g data-week="20" data-day="1" class="day"><path d="M315.40,193.40 299.40,185.40 299.40,188.60 315.40,196.60 z" fill="#b0b1b4"></path><path d="M315.40,193.40 331.40,185.40 331.40,188.60 315.40,196.60 z" fill="#c7c9cc"></path><path d="M315.40,193.40 299.40,185.40 315.40,177.40 331.40,185.40 z" fill="#ebedf0"></path></g> <g data-week="20" data-day="2" class="day"><path d="M298.80,202.00 282.80,194.00 282.80,197.20 298.80,205.20 z" fill="#b0b1b4"></path><path d="M298.80,202.00 314.80,194.00 314.80,197.20 298.80,205.20 z" fill="#c7c9cc"></path><path d="M298.80,202.00 282.80,194.00 298.80,186.00 314.80,194.00 z" fill="#ebedf0"></path></g> <g data-week="20" data-day="3" class="day"><path d="M282.20,210.60 266.20,202.60 266.20,205.80 282.20,213.80 z" fill="#b0b1b4"></path><path d="M282.20,210.60 298.20,202.60 298.20,205.80 282.20,213.80 z" fill="#c7c9cc"></path><path d="M282.20,210.60 266.20,202.60 282.20,194.60 298.20,202.60 z" fill="#ebedf0"></path></g> <g data-week="20" data-day="4" class="day"><path d="M265.60,219.20 249.60,211.20 249.60,214.40 265.60,222.40 z" fill="#b0b1b4"></path><path d="M265.60,219.20 281.60,211.20 281.60,214.40 265.60,222.40 z" fill="#c7c9cc"></path><path d="M265.60,219.20 249.60,211.20 265.60,203.20 281.60,211.20 z" fill="#ebedf0"></path></g> <g data-week="20" data-day="5" class="day"><path d="M249.00,227.80 233.00,219.80 233.00,223.00 249.00,231.00 z" fill="#b0b1b4"></path><path d="M249.00,227.80 265.00,219.80 265.00,223.00 249.00,231.00 z" fill="#c7c9cc"></path><path d="M249.00,227.80 233.00,219.80 249.00,211.80 265.00,219.80 z" fill="#ebedf0"></path></g> <g data-week="20" data-day="6" class="day"><path d="M232.40,223.60 216.40,215.60 216.40,231.60 232.40,239.60 z" fill="#94ab68"></path><path d="M232.40,223.60 248.40,215.60 248.40,231.60 232.40,239.60 z" fill="#a8c176"></path><path d="M232.40,223.60 216.40,215.60 232.40,207.60 248.40,215.60 z" fill="#c6e48b"></path></g> <g data-week="21" data-day="0" class="day"><path d="M348.60,180.60 332.60,172.60 332.60,188.60 348.60,196.60 z" fill="#94ab68"></path><path d="M348.60,180.60 364.60,172.60 364.60,188.60 348.60,196.60 z" fill="#a8c176"></path><path d="M348.60,180.60 332.60,172.60 348.60,164.60 364.60,172.60 z" fill="#c6e48b"></path></g> <g data-week="21" data-day="1" class="day"><path d="M332.00,202.00 316.00,194.00 316.00,197.20 332.00,205.20 z" fill="#b0b1b4"></path><path d="M332.00,202.00 348.00,194.00 348.00,197.20 332.00,205.20 z" fill="#c7c9cc"></path><path d="M332.00,202.00 316.00,194.00 332.00,186.00 348.00,194.00 z" fill="#ebedf0"></path></g> <g data-week="21" data-day="2" class="day"><path d="M315.40,210.60 299.40,202.60 299.40,205.80 315.40,213.80 z" fill="#b0b1b4"></path><path d="M315.40,210.60 331.40,202.60 331.40,205.80 315.40,213.80 z" fill="#c7c9cc"></path><path d="M315.40,210.60 299.40,202.60 315.40,194.60 331.40,202.60 z" fill="#ebedf0"></path></g> <g data-week="21" data-day="3" class="day"><path d="M298.80,219.20 282.80,211.20 282.80,214.40 298.80,222.40 z" fill="#b0b1b4"></path><path d="M298.80,219.20 314.80,211.20 314.80,214.40 298.80,222.40 z" fill="#c7c9cc"></path><path d="M298.80,219.20 282.80,211.20 298.80,203.20 314.80,211.20 z" fill="#ebedf0"></path></g> <g data-week="21" data-day="4" class="day"><path d="M282.20,227.80 266.20,219.80 266.20,223.00 282.20,231.00 z" fill="#b0b1b4"></path><path d="M282.20,227.80 298.20,219.80 298.20,223.00 282.20,231.00 z" fill="#c7c9cc"></path><path d="M282.20,227.80 266.20,219.80 282.20,211.80 298.20,219.80 z" fill="#ebedf0"></path></g> <g data-week="21" data-day="5" class="day"><path d="M265.60,223.60 249.60,215.60 249.60,231.60 265.60,239.60 z" fill="#94ab68"></path><path d="M265.60,223.60 281.60,215.60 281.60,231.60 265.60,239.60 z" fill="#a8c176"></path><path d="M265.60,223.60 249.60,215.60 265.60,207.60 281.60,215.60 z" fill="#c6e48b"></path></g> <g data-week="21" data-day="6" class="day"><path d="M249.00,245.00 233.00,237.00 233.00,240.20 249.00,248.20 z" fill="#b0b1b4"></path><path d="M249.00,245.00 265.00,237.00 265.00,240.20 249.00,248.20 z" fill="#c7c9cc"></path><path d="M249.00,245.00 233.00,237.00 249.00,229.00 265.00,237.00 z" fill="#ebedf0"></path></g> <g data-week="22" data-day="0" class="day"><path d="M365.20,202.00 349.20,194.00 349.20,197.20 365.20,205.20 z" fill="#b0b1b4"></path><path d="M365.20,202.00 381.20,194.00 381.20,197.20 365.20,205.20 z" fill="#c7c9cc"></path><path d="M365.20,202.00 349.20,194.00 365.20,186.00 381.20,194.00 z" fill="#ebedf0"></path></g> <g data-week="22" data-day="1" class="day"><path d="M348.60,210.60 332.60,202.60 332.60,205.80 348.60,213.80 z" fill="#b0b1b4"></path><path d="M348.60,210.60 364.60,202.60 364.60,205.80 348.60,213.80 z" fill="#c7c9cc"></path><path d="M348.60,210.60 332.60,202.60 348.60,194.60 364.60,202.60 z" fill="#ebedf0"></path></g> <g data-week="22" data-day="2" class="day"><path d="M332.00,219.20 316.00,211.20 316.00,214.40 332.00,222.40 z" fill="#b0b1b4"></path><path d="M332.00,219.20 348.00,211.20 348.00,214.40 332.00,222.40 z" fill="#c7c9cc"></path><path d="M332.00,219.20 316.00,211.20 332.00,203.20 348.00,211.20 z" fill="#ebedf0"></path></g> <g data-week="22" data-day="3" class="day"><path d="M315.40,227.80 299.40,219.80 299.40,223.00 315.40,231.00 z" fill="#b0b1b4"></path><path d="M315.40,227.80 331.40,219.80 331.40,223.00 315.40,231.00 z" fill="#c7c9cc"></path><path d="M315.40,227.80 299.40,219.80 315.40,211.80 331.40,219.80 z" fill="#ebedf0"></path></g> <g data-week="22" data-day="4" class="day"><path d="M298.80,236.40 282.80,228.40 282.80,231.60 298.80,239.60 z" fill="#b0b1b4"></path><path d="M298.80,236.40 314.80,228.40 314.80,231.60 298.80,239.60 z" fill="#c7c9cc"></path><path d="M298.80,236.40 282.80,228.40 298.80,220.40 314.80,228.40 z" fill="#ebedf0"></path></g> <g data-week="22" data-day="5" class="day"><path d="M282.20,245.00 266.20,237.00 266.20,240.20 282.20,248.20 z" fill="#b0b1b4"></path><path d="M282.20,245.00 298.20,237.00 298.20,240.20 282.20,248.20 z" fill="#c7c9cc"></path><path d="M282.20,245.00 266.20,237.00 282.20,229.00 298.20,237.00 z" fill="#ebedf0"></path></g> <g data-week="22" data-day="6" class="day"><path d="M265.60,240.80 249.60,232.80 249.60,248.80 265.60,256.80 z" fill="#94ab68"></path><path d="M265.60,240.80 281.60,232.80 281.60,248.80 265.60,256.80 z" fill="#a8c176"></path><path d="M265.60,240.80 249.60,232.80 265.60,224.80 281.60,232.80 z" fill="#c6e48b"></path></g> <g data-week="23" data-day="0" class="day"><path d="M381.80,197.80 365.80,189.80 365.80,205.80 381.80,213.80 z" fill="#94ab68"></path><path d="M381.80,197.80 397.80,189.80 397.80,205.80 381.80,213.80 z" fill="#a8c176"></path><path d="M381.80,197.80 365.80,189.80 381.80,181.80 397.80,189.80 z" fill="#c6e48b"></path></g> <g data-week="23" data-day="1" class="day"><path d="M365.20,219.20 349.20,211.20 349.20,214.40 365.20,222.40 z" fill="#b0b1b4"></path><path d="M365.20,219.20 381.20,211.20 381.20,214.40 365.20,222.40 z" fill="#c7c9cc"></path><path d="M365.20,219.20 349.20,211.20 365.20,203.20 381.20,211.20 z" fill="#ebedf0"></path></g> <g data-week="23" data-day="2" class="day"><path d="M348.60,227.80 332.60,219.80 332.60,223.00 348.60,231.00 z" fill="#b0b1b4"></path><path d="M348.60,227.80 364.60,219.80 364.60,223.00 348.60,231.00 z" fill="#c7c9cc"></path><path d="M348.60,227.80 332.60,219.80 348.60,211.80 364.60,219.80 z" fill="#ebedf0"></path></g> <g data-week="23" data-day="3" class="day"><path d="M332.00,236.40 316.00,228.40 316.00,231.60 332.00,239.60 z" fill="#b0b1b4"></path><path d="M332.00,236.40 348.00,228.40 348.00,231.60 332.00,239.60 z" fill="#c7c9cc"></path><path d="M332.00,236.40 316.00,228.40 332.00,220.40 348.00,228.40 z" fill="#ebedf0"></path></g> <g data-week="23" data-day="4" class="day"><path d="M315.40,245.00 299.40,237.00 299.40,240.20 315.40,248.20 z" fill="#b0b1b4"></path><path d="M315.40,245.00 331.40,237.00 331.40,240.20 315.40,248.20 z" fill="#c7c9cc"></path><path d="M315.40,245.00 299.40,237.00 315.40,229.00 331.40,237.00 z" fill="#ebedf0"></path></g> <g data-week="23" data-day="5" class="day"><path d="M298.80,253.60 282.80,245.60 282.80,248.80 298.80,256.80 z" fill="#b0b1b4"></path><path d="M298.80,253.60 314.80,245.60 314.80,248.80 298.80,256.80 z" fill="#c7c9cc"></path><path d="M298.80,253.60 282.80,245.60 298.80,237.60 314.80,245.60 z" fill="#ebedf0"></path></g> <g data-week="23" data-day="6" class="day"><path d="M282.20,262.20 266.20,254.20 266.20,257.40 282.20,265.40 z" fill="#b0b1b4"></path><path d="M282.20,262.20 298.20,254.20 298.20,257.40 282.20,265.40 z" fill="#c7c9cc"></path><path d="M282.20,262.20 266.20,254.20 282.20,246.20 298.20,254.20 z" fill="#ebedf0"></path></g> <g data-week="24" data-day="0" class="day"><path d="M398.40,219.20 382.40,211.20 382.40,214.40 398.40,222.40 z" fill="#b0b1b4"></path><path d="M398.40,219.20 414.40,211.20 414.40,214.40 398.40,222.40 z" fill="#c7c9cc"></path><path d="M398.40,219.20 382.40,211.20 398.40,203.20 414.40,211.20 z" fill="#ebedf0"></path></g> <g data-week="24" data-day="1" class="day"><path d="M381.80,227.80 365.80,219.80 365.80,223.00 381.80,231.00 z" fill="#b0b1b4"></path><path d="M381.80,227.80 397.80,219.80 397.80,223.00 381.80,231.00 z" fill="#c7c9cc"></path><path d="M381.80,227.80 365.80,219.80 381.80,211.80 397.80,219.80 z" fill="#ebedf0"></path></g> <g data-week="24" data-day="2" class="day"><path d="M365.20,236.40 349.20,228.40 349.20,231.60 365.20,239.60 z" fill="#b0b1b4"></path><path d="M365.20,236.40 381.20,228.40 381.20,231.60 365.20,239.60 z" fill="#c7c9cc"></path><path d="M365.20,236.40 349.20,228.40 365.20,220.40 381.20,228.40 z" fill="#ebedf0"></path></g> <g data-week="24" data-day="3" class="day"><path d="M348.60,245.00 332.60,237.00 332.60,240.20 348.60,248.20 z" fill="#b0b1b4"></path><path d="M348.60,245.00 364.60,237.00 364.60,240.20 348.60,248.20 z" fill="#c7c9cc"></path><path d="M348.60,245.00 332.60,237.00 348.60,229.00 364.60,237.00 z" fill="#ebedf0"></path></g> <g data-week="24" data-day="4" class="day"><path d="M332.00,253.60 316.00,245.60 316.00,248.80 332.00,256.80 z" fill="#b0b1b4"></path><path d="M332.00,253.60 348.00,245.60 348.00,248.80 332.00,256.80 z" fill="#c7c9cc"></path><path d="M332.00,253.60 316.00,245.60 332.00,237.60 348.00,245.60 z" fill="#ebedf0"></path></g> <g data-week="24" data-day="5" class="day"><path d="M315.40,262.20 299.40,254.20 299.40,257.40 315.40,265.40 z" fill="#b0b1b4"></path><path d="M315.40,262.20 331.40,254.20 331.40,257.40 315.40,265.40 z" fill="#c7c9cc"></path><path d="M315.40,262.20 299.40,254.20 315.40,246.20 331.40,254.20 z" fill="#ebedf0"></path></g> <g data-week="24" data-day="6" class="day"><path d="M298.80,270.80 282.80,262.80 282.80,266.00 298.80,274.00 z" fill="#b0b1b4"></path><path d="M298.80,270.80 314.80,262.80 314.80,266.00 298.80,274.00 z" fill="#c7c9cc"></path><path d="M298.80,270.80 282.80,262.80 298.80,254.80 314.80,262.80 z" fill="#ebedf0"></path></g> <g data-week="25" data-day="0" class="day"><path d="M415.00,227.80 399.00,219.80 399.00,223.00 415.00,231.00 z" fill="#b0b1b4"></path><path d="M415.00,227.80 431.00,219.80 431.00,223.00 415.00,231.00 z" fill="#c7c9cc"></path><path d="M415.00,227.80 399.00,219.80 415.00,211.80 431.00,219.80 z" fill="#ebedf0"></path></g> <g data-week="25" data-day="1" class="day"><path d="M398.40,236.40 382.40,228.40 382.40,231.60 398.40,239.60 z" fill="#b0b1b4"></path><path d="M398.40,236.40 414.40,228.40 414.40,231.60 398.40,239.60 z" fill="#c7c9cc"></path><path d="M398.40,236.40 382.40,228.40 398.40,220.40 414.40,228.40 z" fill="#ebedf0"></path></g> <g data-week="25" data-day="2" class="day"><path d="M381.80,245.00 365.80,237.00 365.80,240.20 381.80,248.20 z" fill="#b0b1b4"></path><path d="M381.80,245.00 397.80,237.00 397.80,240.20 381.80,248.20 z" fill="#c7c9cc"></path><path d="M381.80,245.00 365.80,237.00 381.80,229.00 397.80,237.00 z" fill="#ebedf0"></path></g> <g data-week="25" data-day="3" class="day"><path d="M365.20,253.60 349.20,245.60 349.20,248.80 365.20,256.80 z" fill="#b0b1b4"></path><path d="M365.20,253.60 381.20,245.60 381.20,248.80 365.20,256.80 z" fill="#c7c9cc"></path><path d="M365.20,253.60 349.20,245.60 365.20,237.60 381.20,245.60 z" fill="#ebedf0"></path></g> <g data-week="25" data-day="4" class="day"><path d="M348.60,262.20 332.60,254.20 332.60,257.40 348.60,265.40 z" fill="#b0b1b4"></path><path d="M348.60,262.20 364.60,254.20 364.60,257.40 348.60,265.40 z" fill="#c7c9cc"></path><path d="M348.60,262.20 332.60,254.20 348.60,246.20 364.60,254.20 z" fill="#ebedf0"></path></g> <g data-week="25" data-day="5" class="day"><path d="M332.00,270.80 316.00,262.80 316.00,266.00 332.00,274.00 z" fill="#b0b1b4"></path><path d="M332.00,270.80 348.00,262.80 348.00,266.00 332.00,274.00 z" fill="#c7c9cc"></path><path d="M332.00,270.80 316.00,262.80 332.00,254.80 348.00,262.80 z" fill="#ebedf0"></path></g> <g data-week="25" data-day="6" class="day"><path d="M315.40,279.40 299.40,271.40 299.40,274.60 315.40,282.60 z" fill="#b0b1b4"></path><path d="M315.40,279.40 331.40,271.40 331.40,274.60 315.40,282.60 z" fill="#c7c9cc"></path><path d="M315.40,279.40 299.40,271.40 315.40,263.40 331.40,271.40 z" fill="#ebedf0"></path></g> <g data-week="26" data-day="0" class="day"><path d="M431.60,236.40 415.60,228.40 415.60,231.60 431.60,239.60 z" fill="#b0b1b4"></path><path d="M431.60,236.40 447.60,228.40 447.60,231.60 431.60,239.60 z" fill="#c7c9cc"></path><path d="M431.60,236.40 415.60,228.40 431.60,220.40 447.60,228.40 z" fill="#ebedf0"></path></g> <g data-week="26" data-day="1" class="day"><path d="M415.00,232.20 399.00,224.20 399.00,240.20 415.00,248.20 z" fill="#5c9653"></path><path d="M415.00,232.20 431.00,224.20 431.00,240.20 415.00,248.20 z" fill="#68aa5e"></path><path d="M415.00,232.20 399.00,224.20 415.00,216.20 431.00,224.20 z" fill="#7bc96f"></path></g> <g data-week="26" data-day="2" class="day"><path d="M398.40,253.60 382.40,245.60 382.40,248.80 398.40,256.80 z" fill="#b0b1b4"></path><path d="M398.40,253.60 414.40,245.60 414.40,248.80 398.40,256.80 z" fill="#c7c9cc"></path><path d="M398.40,253.60 382.40,245.60 398.40,237.60 414.40,245.60 z" fill="#ebedf0"></path></g> <g data-week="26" data-day="3" class="day"><path d="M381.80,262.20 365.80,254.20 365.80,257.40 381.80,265.40 z" fill="#b0b1b4"></path><path d="M381.80,262.20 397.80,254.20 397.80,257.40 381.80,265.40 z" fill="#c7c9cc"></path><path d="M381.80,262.20 365.80,254.20 381.80,246.20 397.80,254.20 z" fill="#ebedf0"></path></g> <g data-week="26" data-day="4" class="day"><path d="M365.20,270.80 349.20,262.80 349.20,266.00 365.20,274.00 z" fill="#b0b1b4"></path><path d="M365.20,270.80 381.20,262.80 381.20,266.00 365.20,274.00 z" fill="#c7c9cc"></path><path d="M365.20,270.80 349.20,262.80 365.20,254.80 381.20,262.80 z" fill="#ebedf0"></path></g> <g data-week="26" data-day="5" class="day"><path d="M348.60,279.40 332.60,271.40 332.60,274.60 348.60,282.60 z" fill="#b0b1b4"></path><path d="M348.60,279.40 364.60,271.40 364.60,274.60 348.60,282.60 z" fill="#c7c9cc"></path><path d="M348.60,279.40 332.60,271.40 348.60,263.40 364.60,271.40 z" fill="#ebedf0"></path></g> <g data-week="26" data-day="6" class="day"><path d="M332.00,288.00 316.00,280.00 316.00,283.20 332.00,291.20 z" fill="#b0b1b4"></path><path d="M332.00,288.00 348.00,280.00 348.00,283.20 332.00,291.20 z" fill="#c7c9cc"></path><path d="M332.00,288.00 316.00,280.00 332.00,272.00 348.00,280.00 z" fill="#ebedf0"></path></g> <g data-week="27" data-day="0" class="day"><path d="M448.20,245.00 432.20,237.00 432.20,240.20 448.20,248.20 z" fill="#b0b1b4"></path><path d="M448.20,245.00 464.20,237.00 464.20,240.20 448.20,248.20 z" fill="#c7c9cc"></path><path d="M448.20,245.00 432.20,237.00 448.20,229.00 464.20,237.00 z" fill="#ebedf0"></path></g> <g data-week="27" data-day="1" class="day"><path d="M431.60,253.60 415.60,245.60 415.60,248.80 431.60,256.80 z" fill="#b0b1b4"></path><path d="M431.60,253.60 447.60,245.60 447.60,248.80 431.60,256.80 z" fill="#c7c9cc"></path><path d="M431.60,253.60 415.60,245.60 431.60,237.60 447.60,245.60 z" fill="#ebedf0"></path></g> <g data-week="27" data-day="2" class="day"><path d="M415.00,262.20 399.00,254.20 399.00,257.40 415.00,265.40 z" fill="#b0b1b4"></path><path d="M415.00,262.20 431.00,254.20 431.00,257.40 415.00,265.40 z" fill="#c7c9cc"></path><path d="M415.00,262.20 399.00,254.20 415.00,246.20 431.00,254.20 z" fill="#ebedf0"></path></g> <g data-week="27" data-day="3" class="day"><path d="M398.40,270.80 382.40,262.80 382.40,266.00 398.40,274.00 z" fill="#b0b1b4"></path><path d="M398.40,270.80 414.40,262.80 414.40,266.00 398.40,274.00 z" fill="#c7c9cc"></path><path d="M398.40,270.80 382.40,262.80 398.40,254.80 414.40,262.80 z" fill="#ebedf0"></path></g> <g data-week="27" data-day="4" class="day"><path d="M381.80,279.40 365.80,271.40 365.80,274.60 381.80,282.60 z" fill="#b0b1b4"></path><path d="M381.80,279.40 397.80,271.40 397.80,274.60 381.80,282.60 z" fill="#c7c9cc"></path><path d="M381.80,279.40 365.80,271.40 381.80,263.40 397.80,271.40 z" fill="#ebedf0"></path></g> <g data-week="27" data-day="5" class="day"><path d="M365.20,288.00 349.20,280.00 349.20,283.20 365.20,291.20 z" fill="#b0b1b4"></path><path d="M365.20,288.00 381.20,280.00 381.20,283.20 365.20,291.20 z" fill="#c7c9cc"></path><path d="M365.20,288.00 349.20,280.00 365.20,272.00 381.20,280.00 z" fill="#ebedf0"></path></g> <g data-week="27" data-day="6" class="day"><path d="M348.60,296.60 332.60,288.60 332.60,291.80 348.60,299.80 z" fill="#b0b1b4"></path><path d="M348.60,296.60 364.60,288.60 364.60,291.80 348.60,299.80 z" fill="#c7c9cc"></path><path d="M348.60,296.60 332.60,288.60 348.60,280.60 364.60,288.60 z" fill="#ebedf0"></path></g> <g data-week="28" data-day="0" class="day"><path d="M464.80,253.60 448.80,245.60 448.80,248.80 464.80,256.80 z" fill="#b0b1b4"></path><path d="M464.80,253.60 480.80,245.60 480.80,248.80 464.80,256.80 z" fill="#c7c9cc"></path><path d="M464.80,253.60 448.80,245.60 464.80,237.60 480.80,245.60 z" fill="#ebedf0"></path></g> <g data-week="28" data-day="1" class="day"><path d="M448.20,262.20 432.20,254.20 432.20,257.40 448.20,265.40 z" fill="#b0b1b4"></path><path d="M448.20,262.20 464.20,254.20 464.20,257.40 448.20,265.40 z" fill="#c7c9cc"></path><path d="M448.20,262.20 432.20,254.20 448.20,246.20 464.20,254.20 z" fill="#ebedf0"></path></g> <g data-week="28" data-day="2" class="day"><path d="M431.60,270.80 415.60,262.80 415.60,266.00 431.60,274.00 z" fill="#b0b1b4"></path><path d="M431.60,270.80 447.60,262.80 447.60,266.00 431.60,274.00 z" fill="#c7c9cc"></path><path d="M431.60,270.80 415.60,262.80 431.60,254.80 447.60,262.80 z" fill="#ebedf0"></path></g> <g data-week="28" data-day="3" class="day"><path d="M415.00,279.40 399.00,271.40 399.00,274.60 415.00,282.60 z" fill="#b0b1b4"></path><path d="M415.00,279.40 431.00,271.40 431.00,274.60 415.00,282.60 z" fill="#c7c9cc"></path><path d="M415.00,279.40 399.00,271.40 415.00,263.40 431.00,271.40 z" fill="#ebedf0"></path></g> <g data-week="28" data-day="4" class="day"><path d="M398.40,288.00 382.40,280.00 382.40,283.20 398.40,291.20 z" fill="#b0b1b4"></path><path d="M398.40,288.00 414.40,280.00 414.40,283.20 398.40,291.20 z" fill="#c7c9cc"></path><path d="M398.40,288.00 382.40,280.00 398.40,272.00 414.40,280.00 z" fill="#ebedf0"></path></g> <g data-week="28" data-day="5" class="day"><path d="M381.80,296.60 365.80,288.60 365.80,291.80 381.80,299.80 z" fill="#b0b1b4"></path><path d="M381.80,296.60 397.80,288.60 397.80,291.80 381.80,299.80 z" fill="#c7c9cc"></path><path d="M381.80,296.60 365.80,288.60 381.80,280.60 397.80,288.60 z" fill="#ebedf0"></path></g> <g data-week="28" data-day="6" class="day"><path d="M365.20,305.20 349.20,297.20 349.20,300.40 365.20,308.40 z" fill="#b0b1b4"></path><path d="M365.20,305.20 381.20,297.20 381.20,300.40 365.20,308.40 z" fill="#c7c9cc"></path><path d="M365.20,305.20 349.20,297.20 365.20,289.20 381.20,297.20 z" fill="#ebedf0"></path></g> <g data-week="29" data-day="0" class="day"><path d="M481.40,249.40 465.40,241.40 465.40,257.40 481.40,265.40 z" fill="#94ab68"></path><path d="M481.40,249.40 497.40,241.40 497.40,257.40 481.40,265.40 z" fill="#a8c176"></path><path d="M481.40,249.40 465.40,241.40 481.40,233.40 497.40,241.40 z" fill="#c6e48b"></path></g> <g data-week="29" data-day="1" class="day"><path d="M464.80,258.00 448.80,250.00 448.80,266.00 464.80,274.00 z" fill="#5c9653"></path><path d="M464.80,258.00 480.80,250.00 480.80,266.00 464.80,274.00 z" fill="#68aa5e"></path><path d="M464.80,258.00 448.80,250.00 464.80,242.00 480.80,250.00 z" fill="#7bc96f"></path></g> <g data-week="29" data-day="2" class="day"><path d="M448.20,266.60 432.20,258.60 432.20,274.60 448.20,282.60 z" fill="#94ab68"></path><path d="M448.20,266.60 464.20,258.60 464.20,274.60 448.20,282.60 z" fill="#a8c176"></path><path d="M448.20,266.60 432.20,258.60 448.20,250.60 464.20,258.60 z" fill="#c6e48b"></path></g> <g data-week="29" data-day="3" class="day"><path d="M431.60,288.00 415.60,280.00 415.60,283.20 431.60,291.20 z" fill="#b0b1b4"></path><path d="M431.60,288.00 447.60,280.00 447.60,283.20 431.60,291.20 z" fill="#c7c9cc"></path><path d="M431.60,288.00 415.60,280.00 431.60,272.00 447.60,280.00 z" fill="#ebedf0"></path></g> <g data-week="29" data-day="4" class="day"><path d="M415.00,296.60 399.00,288.60 399.00,291.80 415.00,299.80 z" fill="#b0b1b4"></path><path d="M415.00,296.60 431.00,288.60 431.00,291.80 415.00,299.80 z" fill="#c7c9cc"></path><path d="M415.00,296.60 399.00,288.60 415.00,280.60 431.00,288.60 z" fill="#ebedf0"></path></g> <g data-week="29" data-day="5" class="day"><path d="M398.40,305.20 382.40,297.20 382.40,300.40 398.40,308.40 z" fill="#b0b1b4"></path><path d="M398.40,305.20 414.40,297.20 414.40,300.40 398.40,308.40 z" fill="#c7c9cc"></path><path d="M398.40,305.20 382.40,297.20 398.40,289.20 414.40,297.20 z" fill="#ebedf0"></path></g> <g data-week="29" data-day="6" class="day"><path d="M381.80,313.80 365.80,305.80 365.80,309.00 381.80,317.00 z" fill="#b0b1b4"></path><path d="M381.80,313.80 397.80,305.80 397.80,309.00 381.80,317.00 z" fill="#c7c9cc"></path><path d="M381.80,313.80 365.80,305.80 381.80,297.80 397.80,305.80 z" fill="#ebedf0"></path></g> </g> </svg>